<?xml version="1.0" standalone="no"?>
<!DOCTYPE svg PUBLIC "-//W3C//DTD SVG 20010904//EN"
 "http://www.w3.org/TR/2001/REC-SVG-20010904/DTD/svg10.dtd">
<svg version="1.0" xmlns="http://www.w3.org/2000/svg"
 width="1500.000000pt" height="1001.000000pt" viewBox="0 0 1500.000000 1001.000000"
 preserveAspectRatio="xMidYMid meet">

<g transform="translate(0.000000,1001.000000) scale(0.100000,-0.100000)"
fill="#000000" stroke="none">
<path d="M0 5005 l0 -5005 1960 0 1960 0 2 48 1 47 7 -50 c6 -45 7 -46 8 -13
1 20 7 40 13 44 16 9 30 -17 24 -43 -5 -23 9 -40 20 -23 3 5 15 10 26 10 12 0
19 7 19 20 0 11 -5 20 -11 20 -15 0 -2 52 17 66 7 6 14 25 14 43 0 19 6 34 15
37 21 9 19 35 -4 41 -17 4 -18 8 -8 24 12 19 12 19 17 -3 10 -39 36 -29 32 12
-2 19 -6 37 -8 39 -2 2 -24 4 -51 6 -45 1 -77 25 -34 25 12 0 21 5 21 10 0 6
-9 10 -20 10 -36 0 -21 19 18 22 32 3 37 7 40 31 2 15 9 27 18 27 18 0 18 19
0 26 -8 3 -12 13 -8 26 3 13 1 19 -5 15 -6 -4 -16 0 -23 8 -7 8 -18 15 -25 15
-7 0 -16 7 -19 16 -3 8 -10 13 -15 10 -5 -4 -6 4 -3 16 5 19 7 20 10 6 2 -10
10 -18 17 -18 7 0 15 -5 17 -12 2 -6 9 -8 16 -4 9 5 7 14 -5 33 -16 24 -16 26
3 40 17 12 19 12 22 -2 5 -24 36 -14 40 13 2 15 -2 22 -12 22 -9 0 -16 8 -16
19 0 14 -5 18 -19 14 -27 -7 -36 16 -10 25 19 7 20 10 6 15 -21 8 -22 40 -3
56 11 9 15 9 19 -1 4 -8 6 -7 6 5 1 9 -6 17 -14 17 -9 0 -25 9 -37 20 l-22 20
36 0 c31 0 36 3 34 24 -1 16 -6 22 -15 18 -11 -4 -13 -1 -7 13 4 11 2 21 -5
26 -9 5 -7 15 5 39 9 18 16 34 16 36 0 1 -13 7 -30 13 -16 5 -30 15 -30 22 0
9 3 9 14 0 11 -9 22 -8 50 6 l36 18 -1 65 c-1 118 1 144 10 134 9 -9 19 -64
27 -158 2 -27 9 -55 14 -61 5 -7 7 -15 3 -19 -4 -4 -8 -35 -8 -69 0 -34 -3
-67 -7 -73 -10 -15 -12 -201 -4 -299 3 -44 8 -123 11 -175 2 -52 7 -113 10
-135 3 -22 7 -85 9 -140 3 -55 8 -108 11 -117 7 -17 279 -18 5406 -18 l5399 0
0 2885 0 2886 -35 20 c-19 12 -35 25 -35 29 0 5 -18 11 -39 15 -22 4 -42 13
-45 21 -3 9 -10 12 -16 9 -5 -3 -10 0 -10 8 0 20 -31 31 -42 15 -6 -10 -10 -7
-14 9 -3 12 -18 30 -32 39 -23 15 -25 15 -19 0 4 -10 1 -16 -8 -16 -8 0 -15 5
-15 10 0 6 -5 10 -11 10 -8 0 -9 -11 -5 -32 l6 -32 -22 21 c-13 11 -33 24 -45
28 -17 5 -23 14 -23 36 0 17 -5 40 -12 52 -7 12 -11 32 -9 44 1 11 -3 24 -10
29 -9 5 -10 0 -5 -21 6 -22 4 -26 -8 -22 -9 4 -17 -1 -19 -11 -4 -15 -5 -14
-6 2 -1 12 -6 16 -16 12 -11 -4 -15 1 -15 19 0 18 4 23 16 18 12 -4 15 -2 12
8 -3 8 -11 13 -17 12 -6 -2 -11 11 -11 32 0 19 -5 35 -11 35 -5 0 -8 4 -5 8 2
4 0 14 -5 22 -7 11 -9 4 -7 -22 3 -45 0 -48 -35 -41 -21 4 -25 8 -15 14 9 6 4
9 -17 10 l-30 1 30 8 c30 8 30 8 -8 9 -23 1 -40 7 -43 16 -4 8 -18 16 -33 16
-26 1 -26 1 4 9 l30 8 -30 1 c-23 1 -27 3 -15 11 11 7 5 10 -25 10 -30 0 -36
3 -25 10 13 9 13 10 0 11 -10 0 -8 3 5 9 18 8 18 9 -5 9 -41 2 -70 13 -63 24
4 6 -2 8 -16 4 -18 -4 -20 -3 -10 9 9 11 8 14 -9 14 -11 0 -30 12 -41 26 -12
15 -25 23 -32 18 -7 -4 -9 -3 -6 3 4 6 -5 15 -18 21 -14 7 -25 18 -25 27 0 13
-17 20 -41 17 -4 -1 -10 14 -13 33 -4 19 -12 35 -18 35 -5 0 -8 6 -5 13 3 8
-8 25 -24 38 -16 13 -29 29 -29 35 0 20 -73 89 -97 91 -37 3 -27 -19 42 -87
72 -71 97 -110 84 -131 -6 -10 -9 -11 -9 -1 0 6 -4 12 -10 12 -5 0 -10 -11
-10 -24 0 -16 -7 -27 -19 -31 -14 -4 -19 -14 -18 -33 2 -21 -3 -28 -20 -30
-17 -3 -24 3 -29 22 -4 16 -1 32 6 41 13 15 10 17 -24 19 -11 1 -21 6 -23 11
-4 13 53 39 67 30 6 -3 7 0 4 10 -4 8 -13 14 -22 13 -8 -2 -17 3 -19 10 -3 8
5 12 24 12 l28 1 -27 17 c-16 9 -28 22 -28 28 0 6 -6 17 -14 23 -11 10 -16 8
-21 -9 -4 -12 -4 -24 -1 -27 3 -4 6 -1 6 5 0 17 17 15 24 -3 3 -8 -2 -21 -10
-29 -8 -9 -14 -23 -12 -33 3 -19 -30 -32 -41 -16 -9 14 -54 43 -67 43 -6 0
-16 -11 -22 -25 -10 -21 -9 -25 3 -25 8 0 15 -4 15 -10 0 -5 7 -10 16 -10 12
0 15 -6 11 -21 -5 -18 -2 -20 17 -17 12 3 28 -1 34 -9 7 -7 21 -13 32 -13 13
0 18 -5 14 -15 -4 -8 -1 -21 5 -29 6 -7 9 -20 5 -29 -6 -18 -47 -31 -52 -17
-2 6 -11 10 -20 10 -12 0 -7 -9 16 -30 18 -16 37 -30 42 -30 24 0 -30 -69 -54
-70 -17 0 -66 53 -66 73 0 13 -5 17 -18 12 -11 -3 -38 5 -63 19 -24 13 -60 27
-79 30 -32 6 -33 5 -10 -6 14 -6 31 -10 39 -9 7 1 10 -2 7 -8 -7 -10 60 -61
80 -61 12 0 44 -32 44 -44 0 -5 -7 -5 -16 -2 -10 4 -22 -1 -29 -11 -11 -15
-13 -15 -23 3 -6 11 -26 26 -45 33 -27 11 -33 18 -29 33 4 17 1 19 -17 13 -17
-5 -21 -2 -21 14 0 12 -5 21 -11 21 -6 0 -8 -9 -4 -20 9 -28 -22 -26 -64 4
-30 22 -31 25 -14 35 17 11 17 11 -2 10 -39 -3 -52 1 -96 29 -203 131 -279
183 -279 192 0 5 -6 10 -13 10 -11 0 -131 70 -247 145 -37 24 -62 38 -262 146
-70 38 -130 69 -132 69 -3 0 -20 10 -39 23 -18 12 -86 56 -150 97 -98 63 -117
79 -117 101 0 14 -9 34 -19 46 -11 12 -16 25 -11 33 5 9 9 9 14 1 12 -20 27 0
26 33 -3 52 -1 61 20 83 17 18 17 23 5 33 -8 7 -15 24 -15 39 0 21 2 23 11 11
8 -11 9 -7 4 17 -6 29 -3 34 19 42 20 8 24 15 20 35 -3 18 2 29 16 38 25 16
26 28 0 28 -20 0 -40 27 -40 55 0 14 7 15 48 9 26 -3 52 -11 59 -16 6 -5 35
-18 63 -28 45 -16 51 -17 46 -3 -6 14 -4 14 16 -1 13 -9 34 -22 48 -28 14 -7
36 -19 50 -28 33 -22 137 -53 154 -47 8 3 22 0 32 -7 11 -7 30 -12 44 -11 22
1 25 7 27 44 1 34 -3 48 -22 67 -13 13 -19 26 -14 29 5 4 9 16 9 28 0 25 16
12 22 -18 2 -13 11 -19 24 -18 16 2 20 -4 18 -30 -1 -18 1 -22 3 -10 2 12 11
24 19 27 10 4 14 -3 14 -30 0 -28 3 -35 15 -30 20 7 65 -13 65 -30 0 -7 9 -15
19 -19 11 -3 23 -15 26 -26 4 -10 11 -19 16 -19 5 0 9 -7 9 -15 0 -8 9 -19 21
-26 13 -7 19 -17 16 -29 -3 -11 0 -21 7 -23 8 -3 7 -11 -2 -27 -10 -16 -11
-25 -3 -33 14 -14 14 -54 1 -62 -6 -3 -10 1 -10 10 0 10 -7 15 -18 13 -11 -2
-19 2 -19 7 -1 6 3 9 9 7 5 -1 8 5 6 15 -2 13 -11 17 -30 15 -18 -2 -30 3 -37
16 -7 13 -24 22 -48 24 -41 6 -77 -7 -68 -23 4 -5 2 -9 -3 -9 -14 0 -23 27
-15 46 5 12 15 14 54 9 49 -7 70 7 30 20 -26 8 -151 -25 -158 -41 -2 -7 -11
-10 -19 -7 -17 6 -19 -13 -2 -23 7 -5 25 -7 41 -6 27 2 29 0 23 -23 -4 -14 -2
-25 4 -25 5 0 10 -4 10 -10 0 -5 -15 -10 -32 -11 l-33 0 40 -16 c22 -9 42 -20
43 -25 2 -4 10 -8 18 -8 17 0 50 -18 78 -42 11 -10 26 -18 33 -18 7 0 27 -6
45 -14 18 -8 45 -17 60 -21 15 -3 41 -18 56 -33 16 -15 44 -35 63 -45 31 -17
32 -20 15 -29 -15 -8 -21 -7 -28 6 -5 9 -21 16 -35 16 -25 0 -26 0 -8 -20 10
-11 27 -20 38 -20 16 0 17 -3 7 -15 -6 -8 -8 -20 -4 -26 5 -9 11 -7 21 7 13
18 15 18 27 2 7 -10 16 -15 19 -11 12 11 8 23 -8 23 -19 0 -19 14 0 30 19 16
69 6 102 -20 15 -11 50 -27 79 -36 30 -8 56 -20 60 -25 3 -6 11 -8 18 -6 6 3
20 -1 31 -9 10 -8 26 -14 34 -14 9 0 29 -7 45 -15 15 -8 37 -15 47 -15 11 0
19 -5 19 -11 0 -6 9 -8 20 -4 11 3 20 3 20 -2 0 -4 13 -17 28 -28 l26 -19 -24
34 c-13 19 -35 46 -47 60 -13 14 -23 27 -23 31 0 3 -7 6 -15 6 -8 0 -15 -7
-15 -14 0 -8 5 -11 10 -8 6 3 10 2 10 -4 0 -5 -5 -13 -10 -16 -6 -3 -10 -1
-10 4 0 6 -8 11 -17 11 -14 0 -15 2 -5 9 8 4 13 10 12 12 -1 2 2 12 6 23 4 11
2 21 -6 26 -7 4 -9 13 -5 21 6 9 3 11 -9 6 -9 -4 -15 -3 -11 2 5 9 -32 81 -42
81 -2 0 -1 -5 2 -10 3 -6 1 -10 -5 -10 -7 0 -9 8 -5 20 3 11 2 20 -3 20 -5 0
-17 15 -27 34 -11 19 -23 33 -27 30 -4 -3 -8 3 -9 13 0 11 -3 13 -6 5 -3 -7 1
-21 8 -30 8 -9 19 -27 26 -38 11 -20 9 -22 -13 -20 -20 1 -24 5 -20 21 4 17 0
21 -20 23 -35 3 -44 10 -44 33 0 10 -4 19 -10 19 -18 0 3 32 29 43 25 10 26
11 4 14 -26 5 -27 7 -11 32 9 14 8 23 -5 42 -10 13 -17 19 -17 13 0 -5 5 -15
12 -22 8 -8 8 -15 1 -24 -6 -7 -13 -24 -15 -37 -3 -23 -7 -25 -70 -27 -38 -1
-70 2 -74 7 -8 14 -24 11 -24 -4 0 -22 -57 -8 -63 15 -5 18 -2 19 29 14 21 -4
34 -3 34 4 0 5 -5 10 -11 10 -6 0 -9 9 -6 20 3 11 2 20 -3 20 -12 0 -20 28
-13 46 5 14 8 12 19 -7 7 -13 13 -34 14 -46 0 -13 4 -23 9 -23 4 0 20 -11 35
-25 22 -20 31 -23 46 -15 11 6 31 8 45 4 21 -5 25 -3 25 15 0 16 -6 20 -22 18
-22 -2 -23 2 -22 56 1 52 -1 58 -17 54 -12 -3 -19 0 -19 9 0 8 4 14 9 14 17 0
21 32 5 47 -8 9 -14 24 -11 33 3 10 0 24 -5 31 -8 11 -9 10 -4 -3 3 -12 0 -18
-9 -18 -22 0 -28 19 -11 36 20 20 20 28 0 20 -12 -5 -15 -2 -10 10 4 12 2 15
-9 10 -11 -4 -15 1 -15 19 0 19 -5 25 -21 25 -13 0 -18 4 -13 12 5 7 0 9 -14
6 -19 -5 -63 26 -54 39 2 3 1 7 -2 10 -3 4 -6 -3 -6 -15 0 -26 -14 -36 -28
-19 -8 9 -7 21 3 41 14 26 13 27 -7 21 -13 -5 -18 -3 -14 3 4 6 0 14 -7 19
-28 16 -60 102 -39 104 4 0 17 2 30 5 12 2 22 -1 22 -6 0 -6 5 -10 10 -10 6 0
3 11 -6 25 -9 14 -20 22 -25 19 -5 -3 -9 2 -9 10 0 8 -6 19 -14 23 -7 4 -18
18 -25 30 -7 14 -25 25 -46 29 -33 6 -51 34 -22 34 6 0 1 6 -12 13 -13 6 -29
21 -35 32 -6 11 -12 22 -14 25 -1 2 -18 3 -37 2 -19 -2 -35 2 -35 8 0 5 -6 10
-14 10 -8 0 -16 10 -18 23 -2 17 -9 22 -31 20 -26 -2 -69 27 -66 45 4 25 -2
32 -20 23 -23 -13 -58 9 -46 29 6 10 4 12 -8 7 -9 -3 -19 -2 -22 3 -4 6 -17
10 -31 10 -13 0 -24 4 -24 9 0 5 -9 11 -20 14 -27 7 -26 -16 2 -28 12 -6 24
-16 26 -24 4 -11 0 -12 -14 -5 -11 4 -39 9 -64 10 -69 2 -70 3 -70 24 0 22 16
27 22 8 3 -7 11 -9 24 -4 19 8 19 8 -1 16 -11 5 -14 9 -7 9 7 1 10 6 6 12 -4
7 -21 9 -40 6 -19 -3 -36 -1 -39 4 -10 15 -25 10 -25 -8 -1 -15 -4 -14 -20 5
-14 17 -38 27 -86 35 -58 10 -79 9 -177 -11 -136 -28 -176 -45 -269 -115 -40
-30 -80 -58 -90 -63 -9 -5 -32 -24 -52 -41 -19 -18 -37 -33 -39 -33 -2 0 -28
-24 -58 -53 -30 -30 -61 -58 -70 -63 -8 -5 -35 -35 -59 -67 -35 -47 -43 -66
-45 -106 -2 -47 -2 -48 17 -32 18 15 18 16 1 29 -16 11 -16 14 -3 22 22 14 30
12 56 -12 29 -28 31 -58 4 -81 -11 -9 -20 -26 -20 -37 0 -11 -8 -23 -17 -26
-10 -4 -35 -14 -56 -24 -35 -16 -36 -19 -15 -22 12 -2 23 -10 24 -18 2 -35 4
-41 13 -35 12 7 23 -27 15 -48 -5 -15 -62 -47 -83 -47 -10 0 -15 -22 -14 -58
1 -8 -6 -10 -17 -7 -10 3 -21 1 -24 -4 -7 -11 31 -26 58 -22 30 4 66 -20 66
-45 0 -15 -11 -27 -35 -38 -19 -9 -35 -23 -35 -31 0 -8 -6 -15 -13 -15 -7 0
-24 -10 -36 -22 -13 -12 -37 -21 -52 -21 -31 0 -37 -14 -16 -36 10 -11 5 -13
-29 -8 -36 4 -46 1 -73 -24 -44 -40 -41 -67 8 -75 27 -4 43 -14 52 -30 7 -13
22 -24 33 -24 14 0 17 -3 10 -10 -8 -8 -20 -5 -42 7 -17 10 -34 14 -39 10 -4
-5 0 -13 10 -18 9 -6 15 -14 12 -20 -4 -5 14 -9 39 -9 25 0 46 4 46 9 0 5 9
13 20 16 11 4 18 11 15 16 -4 5 -2 9 3 9 20 0 20 -30 0 -44 -14 -10 -19 -22
-15 -35 3 -11 -1 -28 -8 -38 -13 -17 -14 -17 -34 1 -16 15 -18 21 -9 28 10 6
9 8 -4 8 -27 0 -48 -11 -48 -26 0 -9 -12 -14 -32 -15 l-33 -2 35 -6 c35 -7 34
-7 -17 -14 -43 -6 -52 -11 -55 -30 -2 -14 -10 -22 -22 -22 -10 0 -24 -8 -30
-18 -9 -15 -7 -21 8 -33 17 -12 18 -14 3 -14 -9 0 -17 -6 -17 -13 0 -14 40
-37 65 -37 8 0 15 -5 15 -11 0 -7 11 0 25 15 26 28 55 35 55 13 0 -7 -5 -18
-11 -24 -7 -7 -6 -12 5 -16 10 -4 13 -1 9 9 -4 12 0 15 18 12 13 -2 23 -9 21
-17 -2 -9 6 -11 30 -6 18 4 36 12 39 18 4 5 12 6 18 3 17 -11 3 -26 -25 -26
-16 0 -24 -6 -24 -17 0 -17 -128 -113 -150 -113 -6 0 -10 -4 -10 -10 0 -5 -11
-12 -25 -16 -14 -3 -25 -10 -25 -15 0 -5 -10 -14 -22 -18 -13 -5 -54 -30 -93
-55 -38 -25 -76 -46 -82 -46 -7 0 -13 -4 -13 -9 0 -10 -18 -21 -90 -58 -40
-21 -72 -41 -150 -93 -59 -40 -99 -54 -124 -44 -25 9 -19 24 9 24 17 0 25 5
25 18 0 10 6 27 14 37 12 17 16 17 30 6 18 -15 29 -12 18 5 -4 6 -26 14 -49
17 -37 6 -41 5 -36 -12 6 -22 -16 -68 -26 -54 -3 5 -23 10 -43 10 -31 1 -38
-2 -38 -18 0 -16 3 -18 19 -9 32 16 34 12 13 -22 -14 -21 -29 -33 -44 -33 -16
0 -24 -7 -26 -23 -2 -13 -16 -29 -34 -38 -18 -10 -28 -21 -24 -30 5 -14 -4
-18 -37 -14 -9 1 -16 -2 -15 -7 2 -4 -1 -8 -5 -8 -5 0 -13 -7 -18 -17 -6 -10
-17 -14 -29 -11 -14 4 -20 1 -18 -7 7 -28 -18 -18 -31 12 -8 18 -19 36 -25 40
-6 4 -7 10 -3 15 5 4 12 1 17 -7 7 -11 12 -11 23 -2 8 7 25 11 38 10 19 -2 24
2 24 19 0 11 3 25 8 29 4 4 7 -5 7 -20 0 -15 7 -29 16 -33 19 -7 41 11 25 21
-6 4 -8 20 -4 36 4 23 2 30 -10 30 -8 0 -22 3 -31 6 -11 4 -16 1 -16 -10 0 -9
-7 -16 -15 -16 -8 0 -15 5 -15 10 0 6 7 13 15 16 8 4 15 15 15 26 0 40 19 58
60 58 29 0 40 4 40 15 0 8 5 15 11 15 6 0 24 9 40 21 22 16 28 26 23 41 -4 14
-2 18 5 14 6 -4 11 0 11 8 0 9 8 16 18 16 21 1 52 23 52 38 0 7 10 11 22 9 14
-1 23 4 26 16 3 13 -3 17 -22 17 -20 0 -26 5 -26 22 0 12 7 30 17 40 15 17 15
18 -3 20 -10 0 -25 1 -31 1 -7 -1 -13 8 -13 18 0 24 -9 24 -26 2 -11 -15 -9
-21 8 -40 20 -21 20 -22 2 -47 -12 -16 -25 -23 -36 -20 -12 4 -18 0 -18 -11 0
-9 -4 -13 -10 -10 -5 3 -10 22 -10 41 0 21 -4 33 -10 29 -6 -3 -10 -15 -10
-26 0 -13 -7 -19 -21 -19 -11 0 -17 -4 -14 -10 4 -6 -5 -10 -21 -10 -15 0 -41
-13 -61 -30 -18 -17 -38 -30 -44 -30 -5 0 -22 -11 -37 -25 -15 -14 -32 -25
-39 -25 -19 0 -27 -21 -12 -32 11 -8 10 -9 -3 -4 -11 3 -30 -6 -49 -24 -18
-16 -35 -28 -38 -28 -12 3 -88 -37 -162 -85 -61 -40 -76 -54 -73 -71 3 -12 2
-15 -2 -8 -8 16 -24 15 -24 -2 0 -8 -5 -16 -12 -18 -7 -3 -9 -12 -5 -22 4 -10
13 -16 21 -13 21 8 28 -21 8 -32 -13 -8 -14 -10 -3 -11 11 0 12 -3 3 -12 -17
-17 -42 8 -42 43 0 15 -7 34 -15 42 -7 8 -17 26 -21 41 -4 16 -13 26 -24 26
-31 0 -49 -11 -43 -26 3 -8 0 -14 -7 -14 -15 0 -60 -50 -60 -67 0 -6 -9 -18
-20 -26 -11 -8 -17 -16 -14 -20 3 -3 -13 -11 -35 -18 -23 -7 -46 -18 -52 -26
-6 -7 -18 -13 -25 -13 -8 0 -14 -6 -14 -13 0 -17 -42 -37 -75 -37 -13 0 -32
-8 -42 -19 -10 -10 -30 -21 -45 -25 -16 -3 -28 -11 -28 -16 0 -5 -14 -24 -30
-42 -18 -19 -30 -43 -30 -60 0 -34 -12 -41 -45 -26 -19 8 -28 9 -37 0 -8 -8
-18 -6 -37 9 l-26 20 -16 -20 c-10 -12 -23 -21 -31 -21 -12 0 -35 -31 -63 -83
-10 -18 -79 -49 -89 -40 -7 7 -66 -26 -66 -37 0 -6 -3 -9 -7 -9 -20 4 -75 -15
-80 -28 -3 -7 -26 -25 -52 -40 -25 -14 -58 -39 -74 -55 -15 -16 -27 -26 -27
-23 0 4 -12 -3 -26 -14 -14 -11 -31 -18 -38 -15 -7 3 -28 -6 -48 -20 -20 -13
-46 -27 -59 -31 -44 -14 -115 -63 -175 -121 -24 -23 -56 -44 -71 -47 -16 -3
-39 -17 -53 -30 -14 -13 -39 -27 -55 -31 -17 -4 -43 -13 -60 -21 -16 -7 -45
-18 -62 -25 -18 -7 -58 -39 -90 -71 -31 -33 -65 -59 -75 -59 -9 0 -20 -4 -23
-10 -7 -11 -70 -40 -132 -59 -23 -8 -55 -25 -71 -40 -39 -35 -136 -101 -149
-101 -18 0 -126 -60 -155 -86 -15 -13 -35 -24 -43 -24 -8 0 -17 -11 -21 -24
-6 -26 -61 -69 -104 -81 -14 -5 -51 -31 -82 -60 -32 -29 -77 -58 -100 -66 -24
-7 -54 -19 -68 -26 -14 -7 -30 -13 -36 -13 -14 0 -97 -36 -108 -47 -4 -4 -11
-8 -14 -9 -20 -2 -62 -25 -62 -33 0 -5 -14 -14 -31 -21 -17 -7 -36 -18 -42
-24 -7 -6 -33 -25 -59 -42 -26 -17 -45 -33 -43 -36 3 -3 -15 -15 -39 -28 -25
-12 -57 -35 -73 -50 -15 -15 -40 -35 -55 -45 -16 -9 -28 -24 -28 -31 0 -8 -11
-19 -24 -25 -13 -6 -27 -21 -31 -33 -11 -32 -12 -36 -15 -38 -6 -9 -5 -50 2
-54 4 -3 6 -9 3 -14 -3 -5 -1 -11 5 -15 15 -10 12 -35 -5 -35 -8 0 -15 -6 -15
-14 0 -8 -6 -17 -13 -19 -8 -4 -3 -13 14 -30 27 -24 52 -76 31 -63 -16 10 -60
-55 -60 -87 0 -15 5 -30 9 -33 5 -3 7 -10 4 -15 -4 -5 1 -9 9 -9 20 0 21 -29
1 -36 -17 -7 -21 -44 -5 -44 16 0 11 -27 -6 -34 -14 -5 -16 -18 -12 -81 3 -44
1 -75 -5 -75 -5 0 -6 -7 -3 -16 8 -21 -4 -40 -15 -23 -6 10 -10 9 -15 -6 -4
-11 -16 -27 -27 -36 -15 -12 -17 -20 -10 -33 9 -16 11 -16 22 -2 8 9 17 16 22
16 17 0 9 -29 -16 -56 -14 -15 -25 -34 -25 -44 0 -9 -9 -35 -20 -58 -22 -46
-26 -108 -7 -115 8 -4 9 -8 1 -14 -20 -15 -31 -68 -27 -137 2 -41 8 -73 16
-78 8 -5 7 -8 -5 -8 -10 0 -18 -8 -18 -17 0 -10 -7 -31 -15 -47 -8 -15 -15
-37 -15 -48 0 -11 -7 -26 -15 -34 -16 -16 -20 -36 -7 -32 4 2 7 -1 7 -7 0 -5
-3 -9 -7 -7 -5 1 -8 -24 -8 -55 0 -33 -7 -71 -16 -88 -11 -22 -14 -44 -9 -82
5 -40 3 -53 -9 -60 -10 -5 -17 -26 -19 -55 -1 -26 -6 -50 -10 -54 -14 -14 -7
-50 13 -64 11 -8 20 -18 20 -22 0 -4 -9 -8 -20 -8 -13 0 -20 -7 -20 -20 0 -11
-6 -20 -14 -20 -15 0 -31 -64 -20 -81 4 -6 0 -15 -7 -20 -11 -7 -12 -12 -1
-29 16 -27 15 -55 -3 -70 -8 -7 -15 -18 -15 -24 0 -6 -10 -17 -21 -25 -18 -10
-19 -15 -8 -22 11 -6 11 -13 3 -27 -22 -34 -27 -81 -10 -88 14 -5 14 -8 0 -29
-18 -28 -16 -111 4 -107 18 3 15 -45 -4 -52 -16 -6 -16 -8 0 -24 21 -24 20
-35 -4 -50 -12 -7 -19 -20 -18 -30 2 -11 -5 -18 -19 -20 -13 -2 -23 -8 -23
-13 0 -17 -61 -2 -75 18 -13 18 -13 27 0 69 8 27 15 84 15 126 0 42 5 89 10
104 6 15 13 50 16 78 7 66 32 133 52 141 12 4 13 8 5 13 -9 6 -9 15 2 36 8 15
12 32 9 37 -3 5 -1 9 4 9 6 0 12 15 15 33 5 32 22 87 38 119 5 10 9 28 9 42 0
13 7 43 16 67 9 24 17 51 18 59 15 100 20 119 26 115 4 -2 10 25 13 61 4 37
11 71 16 78 5 6 12 31 16 56 3 25 13 70 22 100 28 104 33 125 43 189 5 35 7
68 3 74 -3 5 0 33 7 61 10 44 10 57 -4 90 -18 42 -20 60 -8 52 13 -8 1 56 -15
81 -8 12 -16 54 -18 94 -2 39 -7 74 -10 77 -3 3 -5 16 -5 29 0 13 -4 23 -9 23
-5 0 -13 9 -16 20 -3 11 -13 20 -20 20 -16 0 -31 43 -21 59 4 5 1 13 -5 17 -6
3 -9 19 -5 34 9 47 -30 54 -108 19 -48 -21 -96 -70 -96 -97 0 -10 -11 -33 -23
-52 -13 -19 -22 -41 -20 -47 3 -7 -2 -16 -11 -19 -9 -3 -16 -12 -16 -19 0 -6
-9 -20 -20 -30 -11 -10 -20 -24 -20 -32 0 -7 -4 -13 -10 -13 -5 0 -10 -7 -10
-16 0 -8 -25 -66 -55 -129 -30 -62 -58 -127 -61 -144 -4 -18 -11 -28 -17 -24
-5 3 -7 1 -4 -4 9 -14 -17 -76 -27 -66 -4 5 -7 1 -6 -7 5 -36 -1 -60 -15 -60
-8 0 -15 -7 -15 -15 0 -8 -6 -15 -14 -15 -18 0 -15 34 7 77 10 18 17 41 17 52
0 11 14 43 30 71 17 28 30 59 30 70 0 17 28 87 49 120 41 66 122 266 141 345
11 48 47 115 63 115 4 0 7 6 7 13 0 8 9 22 20 32 11 10 20 24 20 32 0 7 4 13
8 13 5 0 15 12 23 27 7 16 26 44 41 64 15 20 28 40 28 44 0 3 20 33 45 65 25
32 45 62 45 67 1 4 21 30 45 57 25 28 45 56 45 63 0 7 6 13 13 13 7 0 27 17
43 37 110 141 466 454 684 604 36 24 110 78 165 120 102 77 192 139 201 139 3
0 31 17 62 37 102 66 247 153 256 153 5 0 39 20 75 44 36 24 90 55 118 70 29
14 85 47 125 73 40 26 114 68 163 94 50 25 115 59 145 74 30 16 69 38 85 50
17 12 67 40 111 63 45 23 110 60 145 83 34 23 124 74 198 114 199 106 203 108
241 135 72 51 267 150 297 150 31 0 215 83 298 135 44 27 107 71 140 97 33 26
101 73 150 105 l90 57 81 1 81 0 104 77 c105 77 163 127 157 134 -2 2 -33 -1
-68 -6 -124 -16 -353 -22 -450 -10 -52 6 -142 11 -200 10 -58 0 -158 7 -224
16 -77 11 -120 13 -125 7 -6 -10 -67 -53 -346 -241 -77 -52 -149 -102 -160
-112 -38 -33 -108 -62 -103 -42 5 25 -103 353 -119 359 -7 3 -21 2 -30 -3 -10
-4 -21 -8 -24 -8 -4 -1 -31 -26 -61 -56 -66 -66 -92 -87 -138 -108 -19 -9 -42
-24 -50 -33 -9 -9 -32 -24 -53 -32 -20 -9 -37 -21 -37 -26 0 -6 -20 -22 -45
-37 -25 -14 -52 -36 -60 -47 -13 -18 -15 -19 -15 -4 0 9 -6 17 -14 17 -11 0
-13 -10 -9 -39 5 -37 4 -39 -16 -34 -11 3 -21 9 -21 14 0 5 -5 9 -11 9 -6 0
-9 -7 -6 -15 8 -19 -11 -31 -26 -16 -21 21 -63 13 -76 -15 -6 -14 -8 -30 -4
-36 4 -7 0 -9 -10 -5 -11 4 -25 -4 -42 -26 -13 -18 -25 -27 -25 -20 0 7 -7 10
-15 7 -8 -4 -12 -11 -8 -17 4 -6 0 -8 -10 -4 -11 4 -28 -5 -49 -23 -18 -17
-36 -30 -41 -30 -12 0 -69 -28 -102 -50 -16 -11 -38 -23 -47 -26 -9 -3 -19
-12 -21 -19 -3 -7 -28 -21 -56 -31 -28 -10 -51 -22 -51 -26 0 -4 -5 -8 -11 -8
-6 0 -31 -15 -57 -32 -62 -44 -68 -47 -148 -90 -38 -20 -85 -51 -104 -67 -19
-17 -50 -37 -67 -43 -18 -7 -33 -16 -33 -20 0 -4 -9 -8 -20 -8 -11 0 -20 -7
-20 -15 0 -8 -7 -15 -15 -15 -27 0 -72 -28 -77 -48 -4 -13 -14 -19 -31 -19
-14 0 -38 -9 -54 -20 -15 -11 -39 -24 -52 -28 -14 -4 -36 -18 -50 -31 -14 -13
-33 -24 -41 -24 -20 -1 -50 -24 -50 -39 0 -6 -6 -11 -13 -11 -18 0 -67 -42
-67 -58 0 -7 -7 -12 -16 -12 -9 0 -42 -21 -74 -46 -34 -26 -66 -44 -74 -41
-17 7 -46 -23 -46 -46 0 -19 -36 -24 -42 -6 -2 5 -11 7 -21 4 -9 -4 -14 -11
-11 -16 3 -5 1 -9 -5 -9 -6 0 -8 -6 -5 -14 3 -9 -11 -21 -41 -35 -26 -12 -56
-31 -68 -42 -11 -10 -27 -19 -34 -19 -7 0 -13 -7 -13 -15 0 -17 35 -55 50 -55
17 0 11 -25 -9 -37 -13 -8 -18 -19 -14 -33 3 -12 -2 -29 -12 -40 -20 -22 -39
-27 -33 -8 3 7 -5 21 -18 30 -23 19 -44 23 -45 11 -8 -107 -7 -112 18 -138 14
-14 32 -25 40 -25 19 0 12 -21 -13 -34 -10 -6 -23 -17 -27 -24 -5 -7 -11 -11
-15 -8 -4 2 -7 -6 -7 -19 0 -14 5 -21 13 -18 8 4 12 -5 12 -26 0 -17 -4 -31
-10 -31 -5 0 -10 -4 -10 -10 0 -5 7 -10 15 -10 8 0 15 5 15 10 0 6 5 10 10 10
6 0 10 -7 10 -15 0 -8 -9 -15 -21 -15 -16 0 -19 -4 -14 -19 4 -13 0 -23 -12
-30 -15 -9 -12 -11 17 -12 19 -1 41 -2 48 -2 6 1 12 -3 12 -8 0 -5 9 -9 19 -9
11 0 23 -5 26 -10 3 -5 -3 -10 -14 -10 -12 0 -21 -4 -21 -10 0 -5 -12 -16 -27
-24 -16 -8 -23 -15 -16 -16 8 0 9 -9 2 -32 -7 -25 -6 -34 6 -41 9 -4 13 -13 9
-18 -3 -5 1 -21 10 -34 14 -21 14 -25 -4 -48 -24 -31 -25 -38 -3 -30 12 5 15
2 10 -10 -4 -12 -1 -17 9 -17 11 0 14 -6 10 -16 -3 -9 -6 -18 -6 -20 0 -3 -5
-2 -12 2 -8 5 -9 0 -5 -16 7 -26 -7 -50 -29 -50 -12 0 -11 5 2 25 9 14 12 25
6 25 -6 0 -12 -5 -14 -12 -6 -16 -44 23 -53 54 -14 50 -28 77 -36 72 -5 -3 -9
-1 -9 5 0 5 -3 17 -7 27 -4 12 -3 15 5 10 7 -4 12 -1 12 8 0 9 -7 16 -16 16
-11 0 -15 8 -12 29 1 16 -4 36 -11 45 -9 11 -11 28 -6 53 6 33 5 36 -10 23
-14 -12 -18 -12 -26 1 -12 19 -11 29 1 29 20 0 10 17 -17 29 -24 11 -26 14
-10 22 27 16 20 30 -9 19 -29 -11 -48 4 -60 48 -4 12 -14 27 -24 32 -11 6 -16
17 -13 28 2 11 -2 26 -11 34 -8 9 -16 33 -17 54 -2 34 -29 97 -29 68 0 -6 -14
-26 -30 -44 -17 -18 -30 -39 -30 -46 0 -6 -14 -17 -30 -24 -25 -10 -30 -18
-28 -41 1 -16 8 -31 15 -33 15 -6 18 -36 4 -36 -6 0 -13 4 -16 10 -16 26 -95
2 -120 -37 -9 -12 -22 -23 -29 -23 -8 0 -21 -18 -29 -39 -9 -22 -21 -42 -27
-46 -6 -4 -15 -18 -21 -31 -7 -21 -12 -23 -28 -14 -22 11 -41 13 -26 2 16 -12
37 -53 30 -60 -4 -4 -13 2 -21 12 -17 25 -29 15 -15 -12 14 -26 14 -55 1 -47
-6 4 -17 -9 -25 -29 -18 -44 -33 -53 -37 -24 -2 14 -9 23 -20 22 -10 -1 -14 4
-11 12 3 8 9 12 13 9 11 -7 23 32 15 45 -4 6 -12 7 -18 3 -9 -5 -9 -3 -2 8 6
8 10 34 9 59 0 25 3 48 8 51 5 3 6 13 3 21 -6 14 -10 14 -33 2 -15 -8 -27 -19
-27 -26 -1 -7 -18 -31 -39 -53 -56 -59 -76 -126 -43 -147 8 -5 4 -8 -10 -8
-14 0 -23 -6 -23 -15 0 -8 7 -15 15 -15 8 0 15 -4 15 -10 0 -5 8 -11 18 -11 9
-1 1 -4 -18 -8 -19 -3 -36 -3 -38 1 -2 5 -8 8 -13 8 -6 0 -7 -5 -3 -12 5 -8
-2 -9 -24 -5 -27 6 -35 2 -57 -27 -14 -18 -25 -40 -25 -49 0 -9 -5 -19 -10
-22 -5 -3 -10 -18 -10 -33 0 -15 -7 -47 -16 -71 -8 -25 -15 -58 -16 -75 0 -17
-4 -49 -9 -71 -27 -130 -40 -216 -34 -225 3 -5 1 -10 -6 -10 -6 0 -9 -8 -6
-20 3 -11 1 -37 -4 -57 -19 -75 -21 -89 -21 -148 -1 -64 8 -98 23 -89 10 6 11
-11 3 -43 -7 -25 -28 -30 -40 -11 -5 7 -9 42 -11 78 -1 36 -4 87 -6 114 -5 52
15 145 34 156 8 6 8 9 0 14 -14 9 -14 46 0 46 7 0 9 10 5 25 -4 14 0 49 9 77
8 28 13 53 10 56 -2 2 2 16 9 31 7 14 16 49 19 76 4 28 10 61 13 75 6 21 5 23
-7 13 -9 -7 -21 -43 -28 -80 -8 -37 -18 -73 -23 -80 -5 -7 -12 -27 -15 -45 -3
-18 -8 -37 -13 -43 -4 -5 -11 -26 -15 -45 -4 -19 -11 -40 -15 -45 -5 -6 -8
-26 -7 -45 0 -19 -4 -51 -11 -70 -6 -19 -16 -64 -21 -100 -6 -36 -15 -66 -21
-68 -6 -2 -7 -8 -4 -14 8 -13 -16 -59 -28 -52 -4 3 -8 16 -8 29 0 13 -4 26 -9
29 -12 8 -21 -18 -21 -61 0 -35 -32 -93 -52 -93 -6 0 -8 12 -4 33 4 17 10 48
13 67 3 19 9 40 13 45 5 6 11 28 15 50 7 39 42 144 85 255 12 30 25 67 30 81
4 14 15 39 24 57 9 17 16 42 16 56 0 14 6 29 13 33 16 10 37 58 37 84 0 12 9
32 20 46 11 14 20 38 20 53 0 15 6 33 14 39 8 7 18 27 22 44 3 18 17 52 30 77
13 25 24 49 24 53 0 5 21 41 47 80 27 40 50 77 53 82 3 6 17 27 33 46 15 20
27 39 27 44 0 4 12 22 28 41 15 18 50 61 77 95 64 79 211 222 295 288 36 28
70 55 76 60 6 5 24 16 40 24 16 8 39 25 51 36 12 11 39 30 60 42 21 11 58 34
83 50 25 16 56 33 69 39 13 6 44 24 68 40 24 17 46 30 49 30 3 0 60 37 127 83
122 84 236 153 507 307 80 46 161 93 180 105 76 48 339 201 400 233 36 19 79
44 95 57 17 12 71 44 120 70 208 110 406 228 435 260 38 41 108 85 136 85 13
0 24 4 24 8 0 5 18 16 41 26 54 24 217 133 272 182 24 21 61 53 83 69 21 17
61 51 87 78 51 50 88 60 141 36 26 -12 43 -5 94 36 126 102 232 194 298 260
82 82 182 195 198 224 5 9 24 32 41 52 27 30 123 166 160 228 6 9 13 18 16 21
3 3 38 59 77 125 39 66 75 125 80 130 5 6 11 15 13 21 4 11 137 210 156 234 7
8 33 44 60 80 26 36 81 97 122 137 l75 72 -19 22 c-26 29 -120 89 -140 89 -8
0 -15 5 -15 10 0 6 -12 10 -26 10 -19 0 -25 -4 -20 -15 9 -24 -8 -17 -19 8 -7
14 -24 25 -50 32 -22 5 -42 12 -45 15 -17 21 -99 40 -173 40 -144 0 -362 -36
-398 -67 -8 -7 -21 -13 -28 -13 -37 0 -161 -102 -161 -133 0 -9 9 -19 20 -22
11 -3 20 -10 20 -15 0 -5 8 -11 18 -13 9 -3 -1 -6 -23 -7 -34 -2 -36 -3 -15
-9 17 -5 26 -15 27 -31 1 -14 0 -19 -3 -12 -3 6 -14 12 -24 12 -14 0 -18 -7
-18 -32 1 -21 -6 -37 -20 -49 -12 -9 -22 -22 -22 -27 0 -6 -6 -13 -12 -15 -10
-4 -10 -6 0 -6 17 -1 15 -31 -3 -31 -8 0 -15 -7 -15 -15 0 -8 7 -15 16 -15 10
0 14 -6 11 -14 -9 -22 5 -28 23 -11 16 14 18 14 24 -1 4 -10 -1 -25 -11 -36
-10 -11 -16 -31 -15 -44 4 -25 -13 -34 -21 -11 -2 6 -3 3 -1 -8 3 -20 -52 -75
-75 -75 -20 0 -11 -31 11 -39 13 -5 21 -12 18 -17 -3 -5 9 -13 25 -19 17 -5
33 -14 37 -19 4 -6 14 -3 26 7 24 22 30 21 35 -5 l4 -23 2 23 c0 12 4 22 9 22
12 0 8 -57 -5 -69 -10 -9 -13 -8 -13 4 0 8 -4 15 -8 15 -18 0 -20 -12 -6 -38
8 -15 14 -33 14 -39 0 -16 -27 -17 -32 -1 -2 6 -9 8 -16 5 -8 -5 -5 -20 8 -50
18 -39 18 -42 2 -49 -10 -5 -1 -7 22 -5 24 1 41 -3 44 -11 5 -17 22 -15 22 3
0 8 7 15 15 15 11 0 12 -5 5 -26 -9 -23 -8 -25 12 -22 17 2 23 10 23 27 0 13
6 26 13 28 6 3 12 0 12 -6 0 -6 7 -8 16 -4 9 3 20 0 24 -7 4 -7 13 -9 20 -5
10 6 9 9 0 15 -19 12 -1 32 21 25 12 -4 21 -1 25 9 3 9 10 14 14 11 5 -3 23 9
41 27 20 21 34 28 37 20 7 -22 20 -13 36 28 9 22 21 40 26 40 6 0 10 8 8 17
-2 10 3 18 10 19 6 1 15 2 20 3 4 1 -4 10 -18 21 l-25 20 23 0 c12 0 22 -4 22
-10 0 -5 6 -10 14 -10 11 0 14 -18 15 -75 1 -69 -1 -75 -20 -75 -15 0 -19 -5
-15 -18 7 -21 -28 -42 -69 -42 -20 0 -25 -5 -25 -25 0 -21 -5 -25 -30 -25 -23
0 -30 4 -30 20 0 11 -4 20 -10 20 -5 0 -10 -11 -10 -25 0 -18 -5 -25 -19 -25
-20 0 -40 -18 -38 -35 0 -5 -12 -13 -29 -16 -16 -3 -28 -10 -27 -16 1 -6 -17
-17 -42 -24 -24 -7 -41 -17 -39 -21 6 -9 -72 -47 -97 -48 -9 0 -22 -7 -29 -15
-7 -8 -23 -15 -35 -15 -13 0 -26 -7 -29 -16 -3 -8 -10 -13 -15 -10 -5 3 -20
-3 -34 -14 -14 -11 -30 -20 -35 -20 -18 0 -84 -71 -79 -84 11 -28 -103 -110
-164 -119 -32 -4 -61 -14 -118 -41 -14 -6 -83 -46 -155 -88 -71 -43 -135 -78
-142 -78 -6 0 -14 -6 -17 -14 -3 -8 -19 -17 -36 -21 -16 -3 -35 -13 -42 -21
-6 -8 -21 -14 -34 -14 -18 0 -22 -6 -23 -31 -1 -40 -2 -40 -59 -46 -52 -6
-110 -31 -213 -94 -36 -21 -74 -39 -85 -39 -21 0 -71 52 -81 84 -4 11 -17 31
-30 45 -13 14 -27 34 -30 44 -3 9 -11 17 -19 17 -7 0 -15 7 -19 15 -9 25 -48
34 -78 19 -16 -8 -28 -18 -28 -22 0 -7 -62 -43 -80 -47 -22 -5 -150 -77 -150
-84 0 -6 -8 -12 -17 -15 -10 -3 -32 -19 -50 -36 -18 -16 -39 -30 -47 -30 -8 0
-18 -5 -21 -11 -4 -6 -19 -10 -33 -9 -52 4 -62 0 -101 -40 -24 -25 -84 -63
-158 -101 -65 -33 -131 -68 -148 -79 -33 -20 -64 -37 -235 -127 -63 -33 -146
-79 -185 -102 -89 -53 -245 -131 -261 -131 -7 0 -14 -3 -16 -8 -8 -19 -242
-154 -263 -152 -10 1 -85 -44 -85 -51 0 -4 -11 -10 -24 -13 -26 -6 -121 -65
-147 -90 -9 -9 -19 -16 -23 -16 -10 0 -88 -52 -109 -73 -11 -11 -49 -32 -85
-49 -37 -16 -89 -40 -117 -53 -27 -13 -60 -26 -72 -30 -13 -3 -23 -11 -23 -16
0 -5 -6 -9 -13 -9 -8 0 -22 -9 -31 -19 -10 -11 -28 -22 -42 -25 -13 -4 -24
-11 -24 -16 0 -6 -5 -10 -10 -10 -26 0 -210 -153 -210 -174 0 -10 -103 -171
-111 -174 -5 -2 -9 -13 -9 -25 0 -20 -39 -67 -54 -67 -4 0 -25 -18 -47 -40
-22 -22 -45 -40 -50 -40 -5 0 -9 -4 -9 -10 0 -5 -6 -10 -13 -10 -16 0 -77 -62
-77 -78 0 -7 -13 -26 -30 -44 -16 -17 -30 -35 -30 -39 0 -20 -2 -25 -16 -40
-23 -25 -114 -201 -114 -219 0 -6 -4 -10 -10 -10 -5 0 -10 -5 -10 -11 0 -11
-60 -139 -70 -149 -13 -13 -33 -57 -50 -110 -10 -32 -26 -72 -35 -89 -15 -29
-15 -34 1 -61 24 -39 60 -47 85 -19 10 12 19 27 19 33 0 6 4 5 9 -3 14 -21 32
2 60 74 13 33 37 77 52 97 38 48 90 149 83 160 -3 4 4 8 15 8 11 0 23 5 26 10
3 6 -4 10 -18 10 -20 0 -23 4 -19 25 2 14 8 25 13 25 5 0 9 13 9 29 0 21 6 30
23 35 15 4 18 8 10 14 -16 10 2 81 23 89 8 3 22 19 30 36 13 24 14 31 3 38
-11 6 -11 11 -1 21 9 9 12 9 12 -5 0 -9 5 -17 10 -17 6 0 10 17 10 38 0 31 5
40 30 54 17 10 29 23 28 30 -2 7 11 19 29 27 17 8 34 23 37 34 7 27 30 16 34
-16 3 -21 -2 -29 -22 -37 -14 -5 -26 -14 -26 -20 0 -6 -5 -8 -12 -4 -6 4 -8 3
-4 -4 3 -6 -3 -27 -14 -48 -12 -20 -19 -43 -16 -51 3 -8 -1 -28 -9 -44 -9 -16
-13 -34 -9 -40 3 -6 -3 -20 -14 -32 -42 -47 -55 -76 -42 -92 7 -8 22 -15 34
-15 32 0 47 -19 35 -42 -6 -10 -7 -28 -4 -38 4 -11 2 -20 -4 -20 -5 0 -10 -9
-10 -20 -1 -11 -1 -29 -2 -40 0 -11 -5 -20 -11 -20 -7 0 -9 -24 -6 -70 4 -48
2 -68 -6 -67 -6 1 -11 -5 -11 -13 0 -8 -7 -21 -16 -27 -14 -11 -15 -20 -7 -59
7 -32 7 -49 -1 -57 -15 -15 -14 -27 2 -27 7 0 12 -15 12 -40 0 -26 -5 -40 -13
-40 -9 0 -11 -19 -9 -72 3 -67 6 -73 28 -79 13 -4 18 -7 12 -8 -7 -1 -13 -10
-13 -22 0 -14 -5 -19 -14 -16 -10 4 -16 -11 -24 -56 -10 -59 -9 -63 14 -85 13
-13 24 -29 24 -37 0 -8 4 -15 9 -15 5 0 4 -18 -2 -41 -8 -32 -7 -43 3 -49 11
-7 11 -12 2 -22 -9 -11 -9 -17 1 -27 9 -10 9 -14 -5 -22 -10 -5 -14 -17 -11
-29 6 -23 -31 -42 -65 -33 -23 6 -35 -9 -36 -49 -1 -22 -9 -32 -36 -46 -33
-16 -41 -39 -12 -36 6 1 12 -2 12 -7 0 -5 -18 -9 -40 -9 -33 0 -40 -3 -38 -18
2 -9 8 -21 13 -25 6 -5 4 -7 -5 -4 -10 2 -16 19 -18 45 -3 34 -7 42 -23 42
-16 0 -19 -7 -19 -39 0 -22 5 -42 13 -44 9 -4 9 -6 0 -6 -21 -2 -15 -21 6 -21
21 0 37 -17 26 -28 -3 -4 -26 -7 -50 -7 -47 -1 -77 -15 -32 -15 15 0 27 -3 27
-7 0 -15 -25 -73 -31 -73 -4 0 -5 -8 -3 -17 4 -13 -4 -21 -31 -29 -35 -11 -35
-11 -35 20 -1 28 -2 29 -14 14 -7 -10 -19 -18 -26 -18 -18 0 -39 31 -40 58 0
29 18 29 22 0 2 -13 11 -24 21 -26 24 -5 22 30 -3 53 -21 19 -26 50 -10 60 5
3 10 -3 10 -14 0 -12 7 -21 15 -21 18 0 19 12 4 27 -18 18 -3 46 21 38 13 -4
22 -1 26 9 3 9 13 16 21 16 20 0 11 24 -10 28 -10 2 -17 -3 -17 -12 0 -9 -4
-16 -10 -16 -5 0 -10 7 -10 15 0 8 5 15 10 15 6 0 10 7 10 15 0 14 -15 20 -75
29 -16 2 -10 3 15 1 25 -1 54 -6 65 -9 19 -7 20 -3 17 38 -3 37 -1 46 12 46
12 0 16 -11 17 -42 1 -24 3 -35 6 -25 3 11 14 17 34 17 16 0 29 5 29 10 0 6
-13 10 -30 10 -33 0 -37 9 -18 40 10 16 10 23 -5 37 -14 15 -21 15 -37 5 -11
-6 -27 -12 -36 -12 -13 0 -11 5 8 20 23 17 25 24 18 60 -4 22 -3 40 1 40 5 0
9 7 9 15 0 9 7 18 15 21 8 4 15 13 15 21 0 12 3 13 15 3 19 -15 31 -7 38 27 6
30 -5 54 -47 100 -15 17 -25 36 -22 42 4 6 0 11 -8 11 -9 0 -16 8 -16 19 0 11
-8 22 -18 25 -12 4 -25 28 -38 68 -19 62 -19 63 -63 70 -24 4 -45 9 -48 11 -2
2 -8 55 -15 117 -10 98 -9 116 5 144 33 64 55 133 67 206 7 41 16 89 20 105 5
17 12 49 15 73 4 27 17 52 35 71 16 16 32 41 36 57 4 16 17 45 29 64 13 20 37
65 55 100 18 36 35 67 39 70 3 3 16 25 29 50 13 25 37 63 53 85 16 22 49 69
73 105 25 36 60 81 78 100 18 20 48 54 66 75 83 101 162 185 212 226 65 54
198 147 261 181 84 46 112 63 201 121 49 31 128 78 176 103 48 26 116 64 152
84 80 46 173 98 220 122 19 10 50 27 68 38 18 11 76 43 130 71 166 88 226 121
264 146 21 12 40 23 42 23 10 0 131 74 134 82 2 4 9 8 15 8 14 0 77 32 212
110 56 32 142 79 193 104 50 26 111 65 134 88 43 41 84 63 193 100 32 12 84
35 115 51 63 35 176 121 183 140 3 8 20 21 38 29 30 15 36 15 71 1 37 -15 40
-14 72 8 19 13 82 56 140 96 58 40 113 80 124 90 28 28 89 74 136 104 147 93
289 253 473 534 14 22 30 42 34 43 5 2 9 8 9 14 0 14 87 154 130 208 19 25 38
49 42 55 82 111 250 288 324 342 56 39 46 55 -59 89 -70 23 -99 27 -197 27
-202 0 -399 -49 -488 -120 -57 -46 -100 -92 -108 -115 -3 -10 -10 -18 -15 -18
-5 0 -9 -6 -9 -13 0 -8 -9 -22 -19 -31 -11 -10 -27 -33 -36 -52 -9 -19 -20
-34 -25 -34 -6 0 -10 -7 -10 -15 0 -8 -7 -15 -15 -15 -8 0 -15 -6 -15 -13 0
-7 -30 -44 -66 -82 -36 -39 -73 -86 -83 -105 -20 -42 -14 -96 11 -92 9 1 18
-4 22 -13 4 -10 -1 -15 -17 -16 l-22 0 22 -9 c15 -6 21 -15 17 -25 -5 -11 1
-15 20 -15 14 0 26 -5 26 -11 0 -8 -14 -9 -44 -5 -52 8 -59 2 -41 -39 11 -25
14 -27 20 -12 11 25 34 21 45 -9 6 -14 19 -28 30 -31 11 -3 20 -9 20 -13 0 -5
13 -22 30 -38 27 -27 28 -32 17 -61 -7 -19 -18 -31 -29 -31 -21 0 -22 -4 -7
-31 12 -23 -5 -54 -24 -42 -5 3 -15 -1 -21 -9 -6 -9 -20 -18 -31 -21 -18 -4
-17 -5 3 -6 35 -2 16 -21 -21 -21 -29 -1 -30 -2 -15 -14 16 -12 16 -14 -8 -24
-34 -16 -69 -15 -83 2 -7 8 -21 12 -31 9 -30 -8 -24 -23 9 -23 17 0 33 -4 36
-10 3 -5 2 -10 -3 -10 -6 0 -10 -6 -9 -12 1 -38 -4 -50 -18 -44 -8 3 -16 0
-16 -7 -2 -17 -18 58 -25 114 -4 29 -2 49 5 53 6 4 9 2 5 -7 -7 -20 32 -29 47
-11 8 10 8 14 1 14 -7 0 -9 7 -5 17 5 14 1 15 -28 9 -19 -3 -35 -11 -37 -16
-5 -13 -42 -13 -42 0 0 6 -4 10 -10 10 -15 0 -13 -97 3 -103 10 -4 10 -7 0
-18 -8 -8 -13 -9 -13 -2 0 7 -14 9 -40 6 -26 -4 -40 -2 -40 6 0 6 11 11 25 11
22 0 25 4 25 39 0 22 6 42 13 44 7 4 3 8 -10 12 -25 8 -29 20 -12 31 6 3 15 0
20 -7 8 -11 13 -10 28 9 23 27 39 28 58 5 13 -17 14 -17 11 2 -4 22 -53 34
-70 17 -12 -12 -41 -4 -33 8 3 4 -1 13 -9 19 -14 12 -68 -1 -64 -16 1 -5 -32
-42 -73 -84 -41 -42 -73 -82 -71 -88 2 -6 -5 -11 -15 -11 -19 0 -62 -40 -82
-77 -6 -13 -21 -23 -34 -23 -12 -1 -38 -14 -57 -30 -19 -17 -39 -30 -45 -31
-5 0 -30 -16 -55 -34 -25 -19 -60 -42 -77 -51 -18 -9 -33 -19 -33 -23 0 -3
-33 -6 -73 -6 -62 0 -76 -3 -97 -23 -14 -12 -35 -25 -47 -28 -13 -4 -23 -9
-23 -13 0 -3 -17 -15 -37 -26 -21 -11 -44 -26 -51 -33 -8 -7 -27 -19 -43 -27
-16 -9 -29 -19 -29 -23 0 -11 -96 -72 -113 -72 -8 0 -37 -15 -64 -33 -26 -18
-73 -45 -103 -61 -30 -16 -76 -44 -103 -63 -42 -31 -92 -59 -264 -150 -29 -15
-53 -31 -53 -35 0 -4 -6 -8 -14 -8 -7 0 -35 -12 -62 -26 -27 -15 -71 -39 -99
-53 -27 -15 -66 -36 -85 -48 -19 -11 -93 -51 -165 -88 -71 -38 -146 -78 -165
-90 -19 -12 -57 -33 -85 -47 -67 -34 -161 -84 -273 -146 -50 -29 -96 -52 -100
-52 -5 0 -17 -9 -27 -20 -10 -11 -22 -20 -28 -20 -5 0 -29 -13 -54 -30 -24
-16 -47 -30 -50 -30 -5 0 -29 -14 -128 -78 -11 -7 -34 -19 -52 -27 -60 -28
-173 -106 -214 -148 -57 -59 -82 -120 -81 -200 0 -29 -3 -37 -14 -33 -17 7
-19 -20 -1 -27 9 -4 9 -7 -1 -15 -7 -5 -12 -13 -11 -18 3 -13 -30 -86 -49
-106 -19 -23 -72 -24 -72 -3 0 9 -7 18 -15 21 -8 4 -15 12 -15 20 0 8 -10 14
-23 14 -28 0 -63 -44 -72 -91 -7 -35 -46 -89 -65 -89 -5 0 -10 -4 -10 -9 0 -5
-15 -18 -34 -29 l-34 -20 -6 31 c-6 33 18 135 47 198 9 19 21 54 27 78 7 25
29 85 50 134 34 78 49 100 117 166 95 93 152 142 248 213 6 4 24 19 41 33 18
14 34 25 37 25 3 0 54 33 114 73 59 39 144 93 188 119 44 26 88 53 97 60 9 6
37 23 62 37 60 34 299 168 356 199 25 14 52 30 60 37 8 6 42 27 75 45 33 19
62 37 65 41 3 4 17 13 30 19 14 6 43 21 65 34 22 14 83 45 135 71 52 25 102
50 110 56 16 10 19 11 100 42 30 12 69 29 85 39 17 9 80 42 140 73 61 32 117
61 125 65 8 4 29 14 45 21 47 22 96 57 141 101 44 43 110 76 154 77 14 1 49
17 79 36 29 19 55 35 58 35 16 0 135 108 139 127 4 13 12 23 20 23 8 0 14 7
14 15 0 17 45 49 59 41 5 -3 32 -2 59 4 52 10 150 76 233 158 20 20 46 44 56
53 56 49 293 339 293 360 0 4 18 29 40 54 22 25 40 53 40 62 0 9 7 23 15 32
32 34 65 79 65 89 0 6 8 17 18 24 18 13 37 46 34 60 -1 4 68 78 153 164 85 86
155 159 155 163 0 12 -46 30 -57 23 -5 -4 -13 -14 -17 -22 -3 -8 -5 -3 -3 12
3 22 -1 28 -22 33 -91 23 -288 9 -366 -26 -27 -12 -56 -21 -62 -20 -7 1 -13
-2 -13 -7 0 -5 -13 -15 -29 -21 -15 -7 -34 -23 -41 -37 -8 -13 -21 -24 -31
-24 -12 0 -16 -5 -13 -14 3 -8 -9 -25 -28 -40 -18 -14 -27 -26 -20 -26 17 0
-18 -49 -35 -50 -6 0 -15 -5 -19 -11 -5 -9 1 -10 21 -5 23 6 26 4 21 -9 -3 -9
-6 -19 -6 -21 0 -2 -7 -4 -15 -4 -9 0 -18 -12 -21 -30 -4 -16 -11 -30 -16 -30
-5 0 -6 -5 -3 -10 4 -6 16 -8 27 -4 17 5 20 3 15 -11 -4 -9 -7 -21 -7 -26 0
-6 -8 -9 -17 -7 -15 3 -18 -6 -19 -57 -1 -33 3 -66 8 -72 8 -9 4 -15 -13 -22
l-24 -9 25 -6 c14 -3 34 -7 45 -9 12 -3 8 -5 -11 -6 -32 -1 -32 -1 -22 -38 5
-21 9 -55 8 -75 -1 -43 14 -57 30 -28 7 14 8 26 1 39 -8 14 -7 20 5 25 9 3 12
2 9 -5 -4 -5 -1 -17 6 -25 9 -11 9 -18 1 -26 -7 -7 -12 -24 -12 -39 0 -15 -4
-31 -10 -34 -6 -3 -10 -15 -10 -26 0 -11 -7 -22 -15 -25 -8 -4 -15 -15 -15
-25 0 -17 -11 -24 -32 -20 -4 0 -10 -10 -14 -24 -5 -20 -13 -25 -36 -25 -26 0
-29 -2 -18 -15 7 -8 10 -16 6 -16 -3 -1 -10 -2 -15 -3 -5 0 -21 -13 -35 -28
-14 -16 -30 -28 -36 -28 -5 0 -10 -7 -10 -16 0 -10 -6 -14 -15 -10 -8 3 -21
-4 -29 -15 -7 -11 -23 -21 -35 -22 -11 -1 -23 -7 -25 -13 -5 -13 -62 -44 -81
-44 -7 0 -16 -11 -19 -25 -4 -14 -11 -23 -16 -20 -5 3 -11 1 -15 -5 -3 -5 -17
-10 -31 -10 -13 0 -24 -4 -24 -9 0 -5 -15 -11 -32 -14 -87 -15 -105 -22 -138
-47 -19 -15 -45 -30 -57 -34 -13 -4 -23 -12 -23 -17 0 -5 -9 -9 -20 -9 -11 0
-20 -4 -20 -8 0 -5 -18 -16 -39 -26 -40 -17 -40 -17 -80 9 -36 22 -45 34 -43
55 0 3 -24 12 -55 19 -55 12 -55 12 -126 -24 -39 -20 -90 -50 -113 -66 -24
-16 -45 -29 -48 -29 -3 0 -15 -8 -25 -17 -32 -30 -46 -39 -92 -68 -77 -48
-182 -173 -184 -220 0 -5 -38 -11 -85 -13 -47 -2 -89 -8 -95 -13 -5 -5 -17 -9
-27 -9 -21 0 -63 -19 -153 -70 -66 -37 -152 -80 -160 -80 -3 0 -17 -11 -31
-24 -15 -13 -45 -29 -68 -36 -22 -7 -45 -16 -51 -20 -5 -5 -59 -33 -120 -64
-191 -98 -250 -131 -258 -143 -4 -7 -14 -13 -21 -13 -18 0 -156 -73 -239 -127
-40 -25 -108 -70 -152 -98 -44 -29 -100 -62 -125 -75 -108 -54 -145 -74 -150
-80 -3 -4 -25 -20 -50 -35 -25 -15 -48 -33 -52 -39 -12 -17 -9 -96 2 -96 6 0
10 -6 9 -12 -2 -15 11 -51 22 -58 4 -3 9 -37 12 -75 4 -65 3 -71 -14 -71 -12
0 -18 5 -15 13 3 7 -4 17 -14 23 -11 6 -20 7 -20 3 0 -4 -11 5 -25 21 -13 16
-22 33 -19 37 3 5 -6 13 -20 19 -14 5 -26 14 -26 19 0 16 -74 29 -100 17 -24
-11 -60 -41 -60 -51 0 -3 -15 -26 -34 -52 -19 -27 -53 -84 -76 -128 -23 -44
-55 -102 -71 -130 -16 -27 -38 -70 -50 -95 -11 -25 -28 -61 -37 -80 -10 -19
-23 -41 -29 -48 -7 -7 -16 -25 -20 -40 -3 -15 -13 -32 -20 -37 -8 -6 -27 -48
-42 -93 -23 -69 -33 -87 -61 -103 -33 -20 -33 -20 -52 -1 -26 26 -33 83 -15
124 9 18 21 51 27 73 7 22 21 58 31 81 10 22 19 45 19 51 0 14 31 76 47 91 7
7 13 18 13 25 0 6 9 29 19 51 21 45 61 152 66 176 2 9 6 43 10 75 8 68 30 153
54 205 63 140 258 336 410 415 33 16 67 16 137 -1 31 -8 67 32 53 57 -6 13 -6
26 1 39 6 11 8 20 5 20 -3 0 4 18 15 40 24 47 24 50 4 50 -8 0 -12 -4 -9 -10
3 -5 -9 -16 -27 -24 -18 -9 -40 -20 -48 -25 -8 -5 -49 -28 -90 -52 -41 -23
-81 -49 -88 -56 -7 -7 -22 -13 -32 -13 -10 0 -22 -4 -25 -10 -3 -5 -14 -10
-24 -10 -9 0 -32 -11 -51 -25 -21 -15 -42 -23 -54 -20 -12 3 -15 2 -8 -1 20
-10 13 -24 -12 -24 -13 0 -43 -11 -67 -24 -24 -14 -46 -23 -51 -20 -4 3 -8 0
-8 -5 0 -6 -12 -11 -26 -11 -22 0 -25 -2 -14 -15 11 -13 7 -15 -22 -15 -22 0
-42 -7 -53 -20 -10 -11 -33 -22 -51 -26 -21 -4 -34 -12 -34 -21 0 -10 -7 -14
-20 -10 -11 3 -20 1 -20 -4 0 -5 -5 -9 -11 -9 -6 0 -31 -13 -56 -30 -24 -16
-48 -30 -53 -30 -5 0 -13 -6 -17 -13 -14 -23 -60 -46 -85 -43 -32 3 -60 24
-84 61 -30 47 -56 64 -96 65 -56 0 -85 18 -109 67 -17 36 -21 56 -16 101 11
124 83 278 174 375 44 48 163 137 182 137 6 0 11 4 11 8 0 5 46 31 103 58 100
48 104 49 197 49 l94 0 31 58 c22 43 42 65 75 85 53 32 278 132 296 132 7 0
14 3 16 8 2 4 48 27 103 51 55 24 137 61 183 82 45 22 84 39 87 39 2 0 33 13
67 29 35 15 117 52 183 80 66 29 138 61 160 71 34 15 61 27 85 35 3 1 46 21
95 44 111 52 118 55 180 81 28 12 100 46 160 76 111 55 123 62 160 82 11 6 61
32 110 58 50 25 92 50 93 55 2 5 10 9 18 9 8 0 14 4 14 9 0 5 8 12 18 16 11 3
24 17 31 31 10 23 8 30 -19 60 -49 56 -40 137 23 202 37 40 65 52 127 58 64 7
70 16 73 107 1 31 6 47 15 47 9 0 12 10 10 28 -2 15 1 27 5 27 5 0 15 11 22
25 12 22 11 26 -3 32 -15 6 -15 7 2 7 14 1 17 6 12 25 -4 18 -1 28 11 34 15 9
14 12 -8 34 -14 14 -31 27 -39 30 -18 6 -19 120 -1 126 6 2 11 10 11 17 0 15
43 45 65 45 24 0 18 18 -7 22 -41 6 -24 23 31 32 52 9 55 8 75 -17 12 -15 29
-27 39 -27 9 0 17 -5 17 -11 0 -6 7 -17 15 -25 20 -21 19 -70 -4 -119 -21 -46
-35 -59 -76 -70 -21 -6 -25 -9 -13 -12 14 -4 16 -8 7 -24 -5 -11 -15 -17 -20
-13 -7 4 -10 -7 -8 -29 2 -20 1 -39 -3 -42 -3 -3 -4 -23 -1 -43 3 -23 -1 -53
-11 -76 -9 -21 -16 -42 -16 -47 0 -10 52 0 60 11 3 3 26 21 52 38 26 18 74 59
105 90 32 32 84 75 115 97 32 21 93 71 135 111 43 40 86 74 95 74 9 0 19 4 22
8 3 5 38 14 78 22 89 15 143 41 160 76 22 46 80 57 234 43 87 -8 167 -9 240
-3 146 12 224 8 292 -16 79 -28 95 -26 142 20 38 37 46 40 79 34 20 -3 48 -7
62 -8 15 -2 46 -17 69 -34 35 -25 46 -29 67 -21 30 11 54 0 87 -44 15 -19 49
-44 78 -57 90 -39 132 -60 173 -85 78 -47 78 -47 167 -14 141 53 427 60 538
13 20 -8 42 -16 50 -18 17 -3 68 -24 90 -37 8 -5 36 -20 62 -34 26 -13 49 -29
53 -35 9 -15 68 -12 122 6 122 42 216 58 260 45 19 -6 57 -6 91 -1 32 4 76 4
98 0 130 -26 195 -44 242 -65 85 -39 213 -121 265 -170 27 -25 53 -45 58 -45
5 0 47 20 92 45 146 79 337 126 392 97 22 -11 32 -11 57 -1 37 15 198 6 283
-17 64 -17 188 -73 238 -107 151 -104 255 -205 359 -349 38 -54 72 -98 75 -98
2 0 53 38 111 83 189 148 296 211 446 262 135 46 244 63 292 46 22 -8 53 -10
79 -6 90 13 263 -34 440 -120 248 -121 415 -289 605 -610 64 -108 74 -126 180
-325 145 -272 243 -426 352 -552 46 -54 52 -57 106 -63 31 -3 67 -8 80 -11 13
-3 82 -63 152 -134 71 -71 146 -140 167 -153 89 -56 151 -85 203 -96 38 -8 71
-24 105 -51 73 -57 138 -103 245 -172 86 -56 277 -168 286 -168 2 0 4 909 4
2020 l0 2020 -3312 0 c-2853 -1 -3316 -3 -3338 -15 -33 -19 -65 -19 -84 0 -21
21 -751 23 -775 1 -9 -7 -43 -23 -76 -34 -63 -21 -81 -40 -46 -49 28 -7 27
-17 -10 -47 -42 -36 -77 -53 -124 -62 -36 -6 -103 -37 -115 -53 -19 -24 -74
-42 -108 -36 -32 6 -34 5 -23 -9 11 -14 11 -16 -3 -16 -10 0 -24 7 -32 15 -9
8 -27 15 -40 15 -14 0 -37 9 -52 20 -25 18 -36 19 -129 11 -56 -4 -108 -13
-115 -18 -20 -17 -86 -27 -101 -15 -16 13 -46 7 -60 -11 -14 -18 -63 -35 -53
-19 3 6 2 13 -3 16 -5 3 -11 0 -14 -7 -5 -15 15 -47 30 -47 6 0 9 -19 7 -45
-4 -44 -4 -45 36 -61 22 -9 37 -20 34 -25 -12 -20 15 -8 37 16 35 38 67 51
132 54 45 2 57 -1 57 -13 0 -8 13 -25 29 -39 42 -35 33 -84 -35 -187 -27 -41
-58 -56 -134 -65 -102 -12 -125 -11 -122 5 2 11 -1 11 -12 -3 -18 -23 -142
-39 -192 -25 -36 10 -74 56 -74 91 0 10 13 48 28 85 33 79 31 104 -9 132 -16
12 -29 28 -29 36 0 8 -5 12 -10 9 -15 -9 0 48 14 57 6 4 11 17 11 30 0 16 6
23 18 22 12 -1 17 6 17 22 0 14 7 35 15 48 8 12 16 36 17 52 1 16 12 45 25 64
13 19 23 39 23 44 0 5 10 20 22 33 l21 23 -71 0 -72 0 -75 -75 c-100 -99 -120
-109 -220 -106 -44 0 -96 -3 -115 -9 -25 -7 -49 -7 -85 2 -50 12 -114 56 -108
74 5 15 -45 63 -72 70 -14 3 -48 0 -77 -7 -77 -19 -134 -12 -181 22 -34 25
-49 29 -104 29 l-64 0 15 -22 c32 -45 7 -145 -43 -176 -12 -7 -21 -19 -21 -27
0 -8 -5 -15 -12 -15 -9 0 -9 -3 0 -12 16 -16 15 -29 0 -25 -7 1 -14 -8 -16
-20 -2 -13 -8 -23 -14 -23 -6 0 -20 -7 -30 -17 -10 -9 -18 -11 -18 -5 0 6 -7
9 -15 6 -8 -4 -21 -1 -29 5 -10 9 -17 7 -27 -5 -10 -13 -10 -17 1 -24 8 -5 21
-5 31 0 18 10 29 4 29 -17 0 -9 -9 -13 -27 -11 -19 2 -28 -2 -31 -14 -2 -13 3
-18 17 -18 12 0 21 -4 21 -10 0 -5 -11 -9 -25 -8 -17 2 -26 9 -27 23 -3 39 -5
50 -13 69 -5 11 -3 26 3 36 8 14 8 21 -3 30 -8 6 -11 18 -9 25 7 17 -19 31
-71 39 -33 6 -46 3 -73 -18 -42 -31 -93 -40 -154 -26 -27 5 -69 14 -94 20 -74
16 -115 40 -130 76 -19 45 -18 83 5 127 l19 37 -2179 0 -2179 0 0 -5005z
m4850 4645 c0 -5 -5 -10 -11 -10 -5 0 -7 5 -4 10 3 6 8 10 11 10 2 0 4 -4 4
-10z m1113 -15 c18 -17 18 -122 1 -133 -6 -4 -17 -29 -25 -56 -8 -27 -20 -51
-26 -53 -7 -3 -13 -12 -13 -20 0 -12 -9 -13 -42 -8 -49 8 -118 50 -118 73 0 9
-7 23 -16 33 -15 16 -14 23 9 80 15 38 33 66 45 70 11 4 23 12 27 18 10 17
141 14 158 -4z m-1575 -23 c19 -9 41 -29 50 -44 13 -22 14 -28 1 -41 -8 -9
-25 -32 -39 -51 -14 -20 -31 -36 -37 -36 -7 0 -13 -5 -13 -11 0 -6 -7 -9 -15
-5 -8 3 -15 1 -15 -4 0 -15 -98 -40 -133 -33 -48 9 -79 45 -75 85 6 55 33 94
78 112 22 9 40 20 40 25 0 10 36 17 95 19 17 1 45 -7 63 -16z m2822 -73 c0
-10 4 -20 9 -23 5 -3 12 -18 16 -33 3 -14 15 -38 26 -51 45 -58 14 -126 -78
-173 -60 -30 -65 -31 -103 -19 -22 7 -40 17 -40 22 0 4 -8 9 -17 9 -16 1 -16
2 -1 6 15 4 14 7 -5 30 -29 33 -32 141 -4 161 9 7 22 10 29 6 8 -5 9 -2 5 10
-11 27 -19 74 -10 54 5 -12 13 -14 22 -9 7 5 11 13 7 19 -3 6 22 10 69 9 65 0
75 -3 75 -18z m3264 -33 c-12 -37 -114 -174 -147 -197 -18 -13 -33 -24 -35
-25 -2 -1 -10 -28 -19 -61 -17 -67 -28 -83 -54 -83 -16 0 -19 8 -19 50 0 43 5
55 31 83 17 17 37 31 45 29 8 -2 14 5 14 17 0 29 11 51 25 51 12 0 115 131
115 145 0 3 6 12 13 19 17 20 39 0 31 -28z m-2343 -129 c18 -67 -36 -147 -100
-147 -69 0 -117 54 -100 113 10 36 24 53 72 88 l38 27 40 -21 c30 -16 42 -30
50 -60z m943 -62 c10 -28 7 -65 -9 -95 -31 -59 -125 -28 -125 40 0 37 26 79
54 90 25 9 71 -11 80 -35z m3082 -168 c3 -13 1 -39 -3 -58 -7 -26 -15 -35 -35
-37 -23 -3 -26 1 -30 35 -7 54 6 83 37 83 18 0 26 -7 31 -23z m-76 -237 c0 -5
-2 -10 -4 -10 -3 0 -8 5 -11 10 -3 6 -1 10 4 10 6 0 11 -4 11 -10z m418 -750
c10 -16 10 -20 0 -20 -7 0 -18 11 -24 24 -14 30 5 26 24 -4z m-98 0 c0 -5 -2
-10 -4 -10 -3 0 -8 5 -11 10 -3 6 -1 10 4 10 6 0 11 -4 11 -10z m98 -48 c6
-18 -15 -14 -22 4 -4 10 -1 14 6 12 6 -2 14 -10 16 -16z m72 -26 c21 -4 26
-36 5 -36 -12 0 -15 -6 -10 -22 6 -22 5 -22 -7 -3 -7 11 -13 25 -13 30 0 6
-15 11 -32 13 -18 2 -33 7 -33 12 0 12 30 19 55 14 11 -3 27 -6 35 -8z m100
-72 c0 -8 -7 -14 -15 -14 -10 0 -15 10 -15 26 0 22 2 25 15 14 8 -7 15 -19 15
-26z m-57 5 c3 -13 1 -19 -6 -16 -15 5 -22 37 -9 37 5 0 12 -9 15 -21z m181 4
c3 -10 9 -24 12 -32 4 -7 -3 -4 -15 8 -22 22 -28 41 -12 41 5 0 11 -8 15 -17z
m-541 -10 c-7 -2 -19 -2 -25 0 -7 3 -2 5 12 5 14 0 19 -2 13 -5z m467 -21 c0
-8 70 -48 80 -45 4 1 7 -5 7 -13 0 -18 -15 -18 -50 1 -15 8 -35 11 -45 8 -14
-5 -15 -3 -4 8 17 19 15 29 -8 29 -11 0 -20 5 -20 10 0 6 9 10 20 10 11 0 20
-3 20 -8z m-410 -37 c13 -14 29 -25 37 -25 7 0 13 -4 13 -10 0 -20 -36 -9 -63
19 -15 16 -27 32 -27 35 0 13 18 5 40 -19z m98 -77 c18 -18 15 -28 -8 -28 -13
0 -20 7 -20 20 0 23 10 26 28 8z m476 -20 c8 -32 7 -75 -2 -62 -4 6 -17 16
-30 23 -22 12 -22 13 -5 36 22 30 29 31 37 3z m-5597 -10 c-3 -8 -6 -5 -6 6
-1 11 2 17 5 13 3 -3 4 -12 1 -19z m-22 -8 c-3 -5 -13 -10 -21 -10 -8 0 -14 5
-14 10 0 6 9 10 21 10 11 0 17 -4 14 -10z m1165 0 c0 -5 -2 -10 -4 -10 -3 0
-8 5 -11 10 -3 6 -1 10 4 10 6 0 11 -4 11 -10z m4057 -17 c16 -33 13 -36 -21
-24 -16 7 -26 18 -26 31 0 30 33 25 47 -7z m66 -60 c-4 -10 -2 -14 5 -9 6 3
14 1 18 -5 3 -6 1 -15 -7 -20 -15 -9 -35 4 -50 33 -8 15 -6 18 15 18 20 0 24
-4 19 -17z m-1133 -2 c0 -6 -4 -13 -10 -16 -5 -3 -10 1 -10 9 0 9 5 16 10 16
6 0 10 -4 10 -9z m840 -1 c0 -5 -4 -10 -10 -10 -5 0 -10 5 -10 10 0 6 5 10 10
10 6 0 10 -4 10 -10z m-11 -55 c0 -5 -4 -2 -10 8 -5 9 -17 17 -24 17 -16 0
-20 12 -8 24 8 7 43 -33 42 -49z m389 0 c-3 -28 -3 -28 -46 -19 l-31 6 22 19
c33 27 57 25 55 -6z m95 5 c3 -11 1 -23 -4 -26 -5 -3 -9 6 -9 20 0 31 6 34 13
6z m-336 -19 c3 -20 1 -22 -12 -11 -18 15 -20 43 -3 38 6 -2 13 -15 15 -27z
m-3760 -53 c-3 -7 -5 -2 -5 12 0 14 2 19 5 13 2 -7 2 -19 0 -25z m4003 7 c0
-8 -2 -15 -4 -15 -2 0 -6 7 -10 15 -3 8 -1 15 4 15 6 0 10 -7 10 -15z m-1333
-41 c-3 -3 -12 -4 -19 -1 -8 3 -5 6 6 6 11 1 17 -2 13 -5z m1773 -24 c0 -5 -4
-10 -10 -10 -5 0 -10 5 -10 10 0 6 5 10 10 10 6 0 10 -4 10 -10z m-220 -4 c0
-11 -19 -15 -25 -6 -3 5 1 10 9 10 9 0 16 -2 16 -4z m-1507 -43 c-7 -2 -19 -2
-25 0 -7 3 -2 5 12 5 14 0 19 -2 13 -5z m1734 -22 c16 -21 16 -31 1 -31 -7 0
-21 13 -30 29 -15 28 -15 29 0 23 9 -3 22 -13 29 -21z m-147 -21 c0 -5 -7 -10
-15 -10 -8 0 -15 5 -15 10 0 6 7 10 15 10 8 0 15 -4 15 -10z m187 -12 c-3 -8
-6 -5 -6 6 -1 11 2 17 5 13 3 -3 4 -12 1 -19z m-168 -40 c0 -16 -2 -18 -6 -8
-3 8 -11 18 -17 22 -7 5 -4 8 7 8 11 0 17 -7 16 -22z m-5922 -55 c1 -40 1 -40
-35 -39 -34 2 -37 4 -40 36 -3 30 -2 32 12 21 13 -11 17 -11 22 3 3 9 3 23 0
32 -6 15 -4 15 16 2 17 -11 23 -26 25 -55z m5958 37 c3 -5 1 -10 -4 -10 -6 0
-11 5 -11 10 0 6 2 10 4 10 3 0 8 -4 11 -10z m81 -15 c2 -32 -8 -32 -23 0 -9
21 -9 25 5 25 11 0 18 -9 18 -25z m134 11 c0 -8 -5 -18 -11 -22 -14 -8 -33 11
-25 25 10 16 36 13 36 -3z m-1947 -13 c-7 -2 -19 -2 -25 0 -7 3 -2 5 12 5 14
0 19 -2 13 -5z m1777 -35 c0 -18 -2 -20 -9 -8 -6 8 -7 18 -5 22 9 14 14 9 14
-14z m-40 -70 c0 -4 -6 -8 -13 -8 -7 0 -14 12 -15 28 -1 26 -1 26 13 8 8 -11
15 -23 15 -28z m218 30 c-5 -16 -58 -24 -58 -9 0 8 13 13 53 20 5 0 7 -5 5
-11z m-6418 -28 c0 -5 -5 -10 -11 -10 -5 0 -7 5 -4 10 3 6 8 10 11 10 2 0 4
-4 4 -10z m5240 -4 c0 -3 -4 -8 -10 -11 -5 -3 -10 -1 -10 4 0 6 5 11 10 11 6
0 10 -2 10 -4z m1013 -13 c-7 -2 -19 -2 -25 0 -7 3 -2 5 12 5 14 0 19 -2 13
-5z m-53 -13 c0 -5 -7 -10 -15 -10 -8 0 -15 5 -15 10 0 6 7 10 15 10 8 0 15
-4 15 -10z m-6280 -15 c0 -8 -7 -15 -15 -15 -26 0 -18 20 13 29 1 1 2 -6 2
-14z m6285 -15 c3 -6 -4 -10 -17 -10 -18 0 -20 2 -8 10 19 12 18 12 25 0z
m-225 -10 c49 -14 62 -24 54 -43 -9 -24 -26 -21 -48 8 -11 14 -29 25 -42 25
-13 0 -24 5 -24 10 0 13 16 13 60 0z m180 -30 c0 -5 -4 -10 -10 -10 -5 0 -10
5 -10 10 0 6 5 10 10 10 6 0 10 -4 10 -10z m267 -16 c-3 -3 -12 -4 -19 -1 -8
3 -5 6 6 6 11 1 17 -2 13 -5z m-1226 -36 c1 -18 2 -19 6 -5 5 20 23 13 23 -9
0 -8 -7 -14 -15 -14 -8 0 -15 -5 -15 -11 0 -5 5 -7 10 -4 6 3 10 1 10 -5 0 -6
-10 -10 -22 -8 -18 2 -23 10 -24 33 -1 17 0 33 3 38 9 15 23 6 24 -15z m937
16 c12 -4 22 -13 22 -20 0 -8 8 -14 17 -14 9 0 13 -3 10 -7 -4 -3 -18 -1 -31
7 -14 7 -36 11 -49 8 -16 -3 -28 1 -36 14 -10 16 -8 18 16 18 16 0 38 -3 51
-6z m-6542 -34 c8 0 14 -4 14 -10 0 -13 -3 -13 -33 3 -21 11 -24 16 -14 26 9
10 13 9 15 -3 2 -9 10 -16 18 -16z m4789 10 c3 -5 12 -7 20 -3 10 3 15 -1 15
-12 0 -12 -5 -15 -20 -10 -15 5 -18 3 -14 -9 4 -10 1 -16 -8 -16 -10 0 -15 11
-16 30 -1 29 11 40 23 20z m765 -26 c0 -9 -7 -14 -17 -12 -25 5 -28 28 -4 28
12 0 21 -6 21 -16z m-820 -20 c0 -2 -11 -4 -25 -4 -14 0 -25 4 -25 9 0 4 11 6
25 3 14 -2 25 -6 25 -8z m1925 -4 c22 -25 16 -33 -19 -24 -17 4 -26 13 -26 25
0 25 22 24 45 -1z m45 1 c0 -6 -4 -13 -10 -16 -5 -3 -10 1 -10 9 0 9 5 16 10
16 6 0 10 -4 10 -9z m112 -23 c-9 -9 -12 -7 -12 12 0 19 3 21 12 12 9 -9 9
-15 0 -24z m-2083 -14 c-6 -8 -23 -13 -38 -13 -25 1 -25 2 4 9 l30 8 -30 2
-30 2 30 7 c37 9 50 4 34 -15z m1994 -17 c-3 -5 -10 -4 -15 1 -6 6 -7 16 -3
22 6 9 9 9 16 -1 4 -7 5 -17 2 -22z m184 17 c-3 -3 -12 -4 -19 -1 -8 3 -5 6 6
6 11 1 17 -2 13 -5z m-1292 -24 c10 -11 24 -20 32 -20 7 0 13 -4 13 -10 0 -5
17 -12 38 -16 60 -10 140 -53 172 -93 16 -20 38 -45 48 -55 21 -21 260 -152
522 -288 85 -44 164 -89 175 -100 l20 -20 -20 2 c-11 1 -23 2 -27 1 -5 0 -11
-2 -15 -2 -5 -1 -17 -8 -28 -15 -11 -8 -26 -14 -33 -14 -8 0 -28 -6 -45 -14
-18 -7 -68 -23 -112 -36 -44 -12 -93 -29 -108 -37 -16 -8 -31 -12 -34 -9 -4 3
-11 2 -17 -4 -7 -5 -31 -10 -55 -11 -23 -2 -45 -7 -47 -11 -3 -5 -10 -6 -15
-3 -5 4 -9 2 -9 -3 0 -5 -18 -10 -40 -10 -22 0 -44 -4 -50 -7 -15 -9 -46 -15
-169 -31 -25 -3 -48 -7 -52 -10 -8 -5 -79 -15 -124 -18 -17 -1 -35 -4 -40 -7
-6 -3 -21 -4 -35 -3 -14 1 -30 -2 -35 -6 -6 -5 -23 -7 -38 -6 -15 2 -30 -1
-33 -6 -3 -5 -18 -8 -32 -7 -15 1 -40 0 -57 -4 -229 -48 -1269 -68 -1322 -25
-25 20 -11 23 94 16 123 -7 719 -2 779 7 21 3 62 8 89 9 137 10 322 28 335 33
8 3 35 8 60 10 25 2 86 10 135 18 50 8 113 17 140 20 54 5 161 23 210 35 19 4
30 13 29 23 -1 10 2 17 7 17 5 0 5 10 0 23 -4 12 -11 51 -15 87 -12 117 -37
210 -65 244 -14 17 -37 52 -51 79 -13 26 -29 47 -35 47 -6 0 -26 13 -45 30
-19 16 -39 29 -43 30 -8 0 -105 70 -141 101 -12 10 -29 24 -40 32 -17 13 -17
14 6 29 48 32 98 35 123 8z m1185 6 c0 -11 9 -13 33 -10 37 6 95 -12 81 -26
-9 -9 -130 3 -141 14 -8 8 5 36 17 36 5 0 10 -6 10 -14z m-2070 -41 c0 -14 -4
-25 -9 -25 -4 0 -6 11 -3 25 2 14 6 25 8 25 2 0 4 -11 4 -25z m2335 -2 c1 -11
7 -28 14 -37 15 -18 8 -21 -19 -6 -12 6 -16 17 -13 30 6 21 -20 29 -32 10 -4
-6 -16 -10 -28 -9 -47 4 -60 0 -48 -15 18 -22 -4 -28 -23 -7 -17 18 -17 20 4
31 24 13 105 29 130 26 8 -1 15 -11 15 -23z m-181 -22 c3 -4 -6 -6 -19 -3 -14
2 -25 6 -25 8 0 8 39 4 44 -5z m83 -23 c-3 -8 -6 -5 -6 6 -1 11 2 17 5 13 3
-3 4 -12 1 -19z m59 6 c-4 -10 4 -21 24 -32 16 -9 30 -20 30 -24 0 -11 -7 -10
-32 5 -44 24 -64 67 -32 67 10 0 14 -5 10 -16z m-1787 -139 c-17 -40 -31 -57
-48 -62 -26 -6 -71 13 -78 33 -5 14 135 99 145 89 3 -2 -6 -29 -19 -60z m1931
45 c0 -5 -4 -10 -10 -10 -5 0 -10 5 -10 10 0 6 5 10 10 10 6 0 10 -4 10 -10z
m-2360 -154 c0 -3 -4 -8 -10 -11 -5 -3 -10 -1 -10 4 0 6 5 11 10 11 6 0 10 -2
10 -4z m-1037 -356 c6 -22 0 -25 -23 -10 -13 9 -13 11 0 20 8 5 16 10 16 10 1
0 4 -9 7 -20z m3656 -26 c-4 -5 -6 -22 -3 -37 5 -32 3 -32 -36 -9 -31 19 -30
32 2 32 10 0 17 3 17 8 -1 4 -1 15 0 25 1 15 3 16 15 5 8 -8 10 -17 5 -24z
m-3669 -35 c0 -11 -4 -17 -10 -14 -5 3 -10 13 -10 21 0 8 5 14 10 14 6 0 10
-9 10 -21z m3660 -48 c0 -5 9 -13 21 -16 20 -7 20 -8 -11 -36 -17 -16 -38 -29
-47 -29 -9 0 -13 3 -10 7 4 3 2 12 -4 20 -9 10 -8 13 5 13 10 0 16 9 16 25 0
16 6 25 15 25 8 0 15 -4 15 -9z m-3820 -9 c0 -4 -14 -16 -31 -26 -23 -14 -30
-15 -27 -5 3 8 15 20 29 26 29 15 29 15 29 5z m-33 -104 c18 -7 33 -18 33 -26
0 -10 -6 -12 -17 -7 -10 4 -28 10 -40 12 -13 3 -23 12 -23 19 0 17 5 17 47 2z
m3813 -9 c0 -5 -7 -9 -15 -9 -9 0 -12 6 -9 15 6 15 24 11 24 -6z m-83 -5 c-3
-3 -12 -4 -19 -1 -8 3 -5 6 6 6 11 1 17 -2 13 -5z m770 0 c-3 -3 -12 -4 -19
-1 -8 3 -5 6 6 6 11 1 17 -2 13 -5z m-4577 -12 c0 -5 -7 -17 -15 -28 -13 -16
-16 -17 -25 -4 -7 11 -5 16 5 18 8 2 15 8 15 13 0 5 5 9 10 9 6 0 10 -4 10 -8z
m-50 -59 c0 -22 2 -25 10 -13 7 12 12 12 22 2 10 -10 10 -14 -1 -21 -11 -7
-11 -10 1 -17 11 -7 9 -14 -9 -33 -19 -20 -23 -21 -23 -7 0 10 -6 16 -12 13
-7 -2 -12 -11 -10 -21 2 -9 -1 -16 -6 -16 -5 0 -12 -13 -15 -30 -4 -19 -13
-30 -24 -31 -17 0 -17 -1 0 -8 17 -6 17 -8 3 -20 -12 -10 -16 -11 -16 -1 0 10
-4 10 -16 -1 -13 -10 -17 -10 -25 2 -15 24 -10 38 16 45 16 4 25 12 23 23 -5
32 13 70 42 91 24 17 29 26 24 46 -4 14 -2 24 5 24 6 0 11 -12 11 -27z m194
12 c-4 -8 -10 -12 -15 -9 -14 8 -10 24 6 24 9 0 12 -6 9 -15z m4600 -154 c3
-4 3 -11 0 -14 -8 -8 -34 3 -34 14 0 11 27 12 34 0z m259 -88 c-7 -2 -19 -2
-25 0 -7 3 -2 5 12 5 14 0 19 -2 13 -5z m-5153 -33 c0 -5 -7 -10 -16 -10 -8 0
-12 5 -9 10 3 6 10 10 16 10 5 0 9 -4 9 -10z m0 -30 c0 -5 -4 -10 -10 -10 -5
0 -10 5 -10 10 0 6 5 10 10 10 6 0 10 -4 10 -10z m-40 -34 c-12 -12 -30 2 -24
19 5 11 9 12 19 2 7 -7 10 -16 5 -21z m-5760 -771 c0 -8 -4 -17 -10 -20 -6 -4
-10 5 -10 20 0 15 4 24 10 20 6 -3 10 -12 10 -20z m1745 -55 c3 -5 -1 -10 -10
-10 -9 0 -13 5 -10 10 3 6 8 10 10 10 2 0 7 -4 10 -10z m-45 -181 c-9 -16 -40
-28 -40 -15 0 2 -3 12 -7 22 -4 10 -2 15 3 11 6 -3 16 -2 24 3 21 13 32 2 20
-21z m-40 -44 c0 -8 -4 -15 -9 -15 -5 0 -14 7 -21 15 -10 13 -9 15 9 15 12 0
21 -6 21 -15z m15 -34 c3 -5 1 -12 -5 -16 -5 -3 -10 1 -10 9 0 18 6 21 15 7z
m-1768 -133 c-3 -8 -6 -5 -6 6 -1 11 2 17 5 13 3 -3 4 -12 1 -19z m1490 -115
c-1 -15 3 -28 10 -28 18 0 28 -15 10 -15 -9 0 -17 -5 -17 -11 0 -6 9 -9 20 -6
11 3 20 1 20 -4 0 -5 -13 -9 -30 -9 -27 0 -30 3 -30 30 0 17 -4 30 -10 30 -5
0 -10 9 -10 20 0 13 7 20 19 20 15 0 19 -6 18 -27z m43 -413 c0 -5 -4 -10 -10
-10 -5 0 -10 5 -10 10 0 6 5 10 10 10 6 0 10 -4 10 -10z m239 -55 c2 -13 -1
-16 -13 -12 -8 3 -18 2 -21 -3 -8 -13 -25 -13 -25 0 0 6 7 10 15 10 8 0 15 7
15 16 0 21 24 12 29 -11z m-240 -57 c-17 -34 -19 -34 -19 -5 0 18 5 27 15 27
13 0 14 -4 4 -22z m176 11 c12 -19 -5 -23 -22 -6 -16 16 -16 17 -1 17 9 0 20
-5 23 -11z m-189 -237 c-11 -10 -15 4 -8 28 l7 25 3 -23 c2 -13 1 -26 -2 -30z
m4 -32 c0 -5 -2 -10 -4 -10 -3 0 -8 5 -11 10 -3 6 -1 10 4 10 6 0 11 -4 11
-10z m-2048 -59 c13 -16 14 -25 3 -67 -8 -31 -19 -51 -33 -57 -24 -11 -33 -38
-20 -61 5 -9 7 -22 4 -29 -2 -7 -5 -4 -5 6 -1 9 -6 17 -12 17 -7 0 -9 -11 -5
-30 3 -16 2 -30 -3 -30 -16 0 -30 -116 -26 -215 3 -82 2 -95 -7 -70 l-12 30
-6 -25 c-3 -14 -6 8 -6 48 0 50 4 72 12 72 10 0 10 6 -1 26 -15 29 -19 178 -4
169 12 -8 12 11 -1 35 -8 14 -4 25 15 48 29 35 31 42 9 42 -9 0 -14 6 -11 13
2 6 12 12 23 12 11 0 20 8 22 20 5 31 24 65 36 65 7 0 19 -8 28 -19z m8975
-287 c-3 -3 -12 -4 -19 -1 -8 3 -5 6 6 6 11 1 17 -2 13 -5z m-8857 -25 c0 -18
-2 -20 -15 -9 -13 11 -13 15 -3 21 18 12 18 12 18 -12z m924 -10 c-3 -5 -10
-7 -15 -3 -5 3 -7 10 -3 15 3 5 10 7 15 3 5 -3 7 -10 3 -15z m-114 -140 c-7
-24 -11 -54 -11 -66 0 -12 -3 -24 -7 -27 -4 -2 -7 -52 -6 -109 2 -86 0 -107
-13 -111 -8 -4 -13 -13 -10 -20 3 -8 1 -17 -6 -20 -7 -2 -4 -5 6 -5 14 -1 16
-6 11 -28 -4 -16 -11 -29 -16 -31 -17 -7 -7 -22 15 -23 18 -1 18 -2 4 -6 -11
-3 -16 -11 -13 -19 3 -8 -1 -17 -10 -21 -8 -3 -13 -12 -10 -19 3 -9 -1 -14
-11 -14 -13 0 -14 -3 -5 -12 8 -8 15 -8 27 2 11 9 15 10 15 0 0 -6 -9 -14 -20
-17 -23 -6 -27 -23 -6 -23 8 0 18 -5 22 -11 4 -7 -2 -9 -17 -7 -20 3 -23 -1
-24 -34 -1 -26 2 -35 12 -31 7 3 13 0 13 -6 0 -6 -10 -11 -22 -11 -21 -1 -21
-2 -5 -11 12 -7 16 -17 12 -30 -4 -11 -2 -19 4 -19 6 0 11 -14 11 -31 0 -23
-5 -32 -21 -36 -21 -6 -21 -6 2 -19 24 -13 24 -13 2 -14 -20 0 -21 -3 -11 -30
8 -25 7 -34 -7 -49 -11 -13 -13 -21 -6 -26 17 -10 13 -35 -6 -36 -17 -1 -17
-2 0 -6 11 -3 16 -11 13 -21 -2 -9 -8 -28 -11 -41 -5 -15 -2 -27 6 -32 11 -7
11 -9 -1 -9 -13 0 -16 -13 -14 -67 0 -38 -3 -74 -9 -81 -8 -10 -5 -15 12 -19
18 -5 22 -11 19 -34 -3 -16 0 -31 6 -33 6 -2 1 -5 -11 -5 -25 -1 -32 -21 -8
-21 12 0 14 -7 9 -27 -12 -57 -14 -60 -29 -39 -18 23 -44 14 -47 -16 -2 -40
-17 -108 -27 -123 -6 -10 -10 -48 -11 -94 0 -13 -5 -51 -11 -85 -6 -33 -12
-96 -14 -138 -2 -42 -9 -86 -14 -97 -7 -12 -9 -38 -5 -61 4 -23 2 -45 -4 -52
-6 -7 -13 -49 -16 -93 -4 -44 -9 -88 -12 -97 -4 -12 0 -18 10 -18 9 0 16 -4
16 -10 0 -5 -8 -10 -17 -10 -15 0 -15 -1 2 -13 10 -8 15 -19 11 -25 -4 -7 -1
-12 6 -13 7 0 3 -5 -8 -11 -12 -5 -27 -21 -33 -34 -10 -23 -7 -136 5 -155 3
-5 -4 -9 -15 -9 -15 0 -22 -9 -27 -35 -12 -67 -19 -34 -16 78 3 107 21 262 41
357 12 55 41 289 45 368 2 31 15 163 29 292 15 129 33 300 42 379 14 133 25
191 25 128 0 -14 5 -29 11 -32 16 -11 23 3 10 19 -9 11 -8 17 4 29 8 9 11 18
7 21 -10 6 -8 78 2 95 4 5 -2 19 -14 31 -25 25 -25 26 1 33 14 4 20 12 18 29
-2 24 12 207 27 333 10 87 53 353 65 397 7 27 10 50 7 53 -3 3 -32 -6 -64 -20
-75 -33 -95 -17 -23 19 29 14 65 26 80 26 15 0 31 5 35 12 13 21 15 -7 4 -53z
m-143 -154 c1 -25 -2 -45 -7 -45 -6 0 -10 20 -10 45 0 59 14 58 17 0z m-647
-45 c0 -5 -4 -10 -10 -10 -5 0 -10 5 -10 10 0 6 5 10 10 10 6 0 10 -4 10 -10z
m-703 -330 c-2 -41 -7 -84 -10 -95 -3 -11 -6 -26 -6 -32 -1 -7 -10 -13 -20
-13 -15 0 -18 -5 -13 -22 6 -21 7 -21 10 -4 3 15 6 16 12 5 5 -7 4 -21 -1 -31
-6 -10 -7 -24 -3 -30 4 -6 3 -8 -3 -5 -6 4 -16 0 -23 -8 -10 -12 -10 -15 3
-15 18 0 31 -30 18 -43 -6 -6 -9 -3 -8 8 3 23 -21 31 -29 10 -4 -10 1 -22 15
-31 22 -16 29 -44 11 -44 -5 0 -10 5 -10 10 0 6 -7 10 -15 10 -8 0 -15 -5 -15
-11 0 -6 7 -17 15 -25 26 -26 16 -36 -14 -15 -15 11 -31 18 -35 14 -13 -14 -5
44 10 65 8 12 12 27 9 32 -3 6 0 12 7 15 9 4 14 29 15 78 3 125 14 190 40 247
25 52 26 54 35 30 5 -14 7 -59 5 -100z m450 -2 c-3 -8 -6 -5 -6 6 -1 11 2 17
5 13 3 -3 4 -12 1 -19z m-17 2 c0 -5 -4 -10 -10 -10 -5 0 -10 5 -10 10 0 6 5
10 10 10 6 0 10 -4 10 -10z m897 -32 c-3 -7 -5 -2 -5 12 0 14 2 19 5 13 2 -7
2 -19 0 -25z m993 23 c0 -17 -18 -21 -24 -6 -3 9 0 15 9 15 8 0 15 -4 15 -9z
m-1846 -36 c3 -9 0 -15 -9 -15 -8 0 -15 7 -15 15 0 8 4 15 9 15 5 0 11 -7 15
-15z m1826 -39 c0 -3 -4 -8 -10 -11 -5 -3 -10 -1 -10 4 0 6 5 11 10 11 6 0 10
-2 10 -4z m-1880 -43 c0 -20 -3 -24 -11 -16 -7 7 -9 19 -6 27 10 24 17 19 17
-11z m2043 -14 c-12 -12 -72 -16 -73 -4 -1 12 39 23 63 17 10 -3 15 -8 10 -13z
m-173 -8 c0 -6 -4 -13 -10 -16 -5 -3 -10 1 -10 9 0 9 5 16 10 16 6 0 10 -4 10
-9z m-40 -35 c0 -14 5 -28 10 -31 18 -11 11 -25 -12 -25 -37 0 -46 12 -36 48
10 38 38 44 38 8z m94 -12 c26 -10 20 -37 -6 -28 -29 8 -31 10 -23 23 7 13 8
13 29 5z m-1015 -148 c-14 -15 -22 0 -13 26 7 22 7 22 14 3 4 -11 4 -24 -1
-29z m1 -26 c0 -5 -4 -10 -10 -10 -5 0 -10 5 -10 10 0 6 5 10 10 10 6 0 10 -4
10 -10z m-1441 -47 c-5 -26 -4 -40 4 -45 9 -6 9 -8 0 -8 -21 0 -15 -17 10 -25
61 -21 62 -23 20 -24 -24 -1 -43 4 -43 9 0 6 -4 10 -10 10 -18 0 -11 -18 10
-25 11 -3 19 -12 17 -18 -1 -7 7 -12 18 -12 15 0 20 -7 20 -25 0 -17 -5 -24
-16 -22 -21 3 -42 -22 -36 -45 4 -14 5 -13 6 5 1 14 7 22 20 22 15 0 18 -7 17
-45 -1 -40 -3 -44 -21 -38 -11 3 -23 10 -26 15 -4 7 -9 6 -13 0 -3 -6 -1 -12
5 -14 7 -2 6 -15 -4 -38 -8 -19 -19 -53 -24 -75 -6 -27 -13 -39 -23 -37 -11 2
-12 0 -5 -7 15 -16 6 -81 -11 -81 -9 0 -14 -11 -14 -32 0 -24 -10 -43 -35 -70
-27 -28 -35 -45 -35 -72 0 -25 -4 -36 -15 -36 -9 0 -15 9 -15 25 0 14 4 25 9
25 4 0 11 35 15 78 3 42 11 79 16 80 6 2 10 16 10 31 0 51 13 121 21 116 4 -3
10 -1 14 5 3 5 -2 10 -12 10 -17 1 -17 1 0 14 9 7 17 24 17 38 0 14 3 28 7 32
4 4 9 30 10 58 1 28 5 54 10 57 5 3 15 26 23 51 7 25 16 49 19 55 3 5 5 19 6
30 4 60 6 65 24 65 17 0 18 -4 10 -37z m1428 5 c-3 -8 -6 -5 -6 6 -1 11 2 17
5 13 3 -3 4 -12 1 -19z m-697 -257 c0 -6 -4 -13 -10 -16 -5 -3 -10 1 -10 9 0
9 5 16 10 16 6 0 10 -4 10 -9z m-263 -197 c-3 -3 -12 -4 -19 -1 -8 3 -5 6 6 6
11 1 17 -2 13 -5z m1053 -64 c0 -6 -5 -10 -11 -10 -7 0 -9 -31 -5 -92 6 -121
-3 -228 -19 -228 -10 0 -12 28 -8 123 2 67 0 141 -5 163 -12 52 0 79 29 64 10
-6 19 -15 19 -20z m-1074 -56 c-3 -9 -6 -47 -6 -85 0 -62 -11 -89 -22 -56 -7
19 15 157 25 157 5 0 6 -7 3 -16z m-453 -314 c0 -14 -8 -47 -16 -75 l-14 -50
-4 45 c-3 38 -8 46 -26 48 -21 3 -23 0 -22 -45 l2 -48 7 40 c7 41 14 35 23
-18 4 -23 0 -30 -19 -38 -16 -5 -27 -19 -30 -38 -4 -17 -21 -40 -43 -56 -20
-16 -48 -43 -61 -61 -14 -19 -32 -36 -42 -39 -9 -3 -23 -17 -32 -30 -9 -14
-23 -25 -30 -25 -8 0 -17 -6 -19 -12 -3 -8 -6 -4 -8 7 -4 36 -12 63 -28 95
-10 19 16 83 29 75 9 -6 15 16 11 39 -1 5 4 13 11 18 10 7 10 11 1 15 -18 7
14 53 33 46 9 -3 14 2 14 16 0 12 7 24 15 27 10 4 13 14 9 30 -7 28 12 33 31
8 9 -13 16 -14 33 -5 11 6 55 14 97 18 41 3 75 10 75 14 0 5 -7 9 -15 9 -8 0
-15 5 -15 11 0 6 8 9 18 7 11 -2 16 -12 15 -28z m2717 -255 c0 -8 -6 -15 -12
-15 -9 0 -9 -3 1 -9 12 -8 12 -12 2 -24 -8 -10 -9 -17 -1 -22 19 -12 10 -25
-16 -25 -24 0 -26 3 -20 33 3 17 8 41 10 52 5 26 4 25 21 25 8 0 15 -7 15 -15z
m-43 -142 c-4 -20 -11 -40 -18 -43 -8 -6 -8 -9 0 -14 16 -10 14 -26 -4 -26
-10 0 -15 10 -15 30 0 17 5 30 10 30 6 0 10 14 10 30 0 17 5 30 11 30 8 0 10
-13 6 -37z m-27 -139 c0 -8 9 -14 20 -14 11 0 20 -4 20 -10 0 -5 -7 -10 -15
-10 -8 0 -15 -7 -15 -15 0 -9 -10 -29 -22 -45 -43 -59 -62 15 -23 90 16 30 35
33 35 4z m-1217 -61 c-7 -2 -19 -2 -25 0 -7 3 -2 5 12 5 14 0 19 -2 13 -5z
m-1712 -83 c39 0 47 -4 62 -29 9 -15 13 -31 9 -35 -4 -4 -7 -13 -7 -19 0 -7
-8 -11 -17 -9 -26 4 -29 -13 -8 -36 27 -29 25 -34 -16 -55 -31 -15 -43 -16
-101 -5 -74 14 -84 26 -58 74 18 34 57 47 68 24 3 -6 4 -5 3 2 -1 7 -13 15
-26 16 -17 3 -20 6 -9 12 7 5 14 21 15 37 3 58 3 57 22 40 12 -11 36 -17 63
-17z m1709 -145 c0 -8 -7 -15 -15 -15 -8 0 -15 7 -15 15 0 8 7 15 15 15 8 0
15 -7 15 -15z m-150 -34 c0 -9 -9 -22 -20 -29 -17 -11 -20 -10 -20 7 0 32 11
50 26 44 8 -3 14 -13 14 -22z m-940 -59 c0 -18 -6 -41 -12 -52 -11 -17 -10
-22 2 -30 10 -6 11 -10 3 -10 -8 0 -13 -13 -13 -29 0 -16 6 -32 13 -35 10 -5
10 -7 0 -12 -7 -3 -13 -12 -13 -20 0 -8 -7 -14 -16 -14 -13 0 -15 12 -9 92 3
51 9 95 13 98 4 3 7 11 8 18 1 6 2 22 3 35 2 35 21 0 21 -41z m970 42 c0 -8
-4 -12 -10 -9 -5 3 -10 10 -10 16 0 5 5 9 10 9 6 0 10 -7 10 -16z m42 -24 c5
-33 -6 -41 -16 -12 -3 9 -9 23 -12 30 -3 6 1 12 9 12 9 0 17 -12 19 -30z m68
-50 c0 -5 -4 -10 -10 -10 -5 0 -10 -6 -10 -13 0 -12 -39 -37 -56 -37 -3 0 9
16 27 35 34 35 49 43 49 25z m-1853 -82 c-3 -8 -6 -5 -6 6 -1 11 2 17 5 13 3
-3 4 -12 1 -19z m1810 -42 c-6 -15 -9 -14 -27 1 -19 16 -19 18 -3 24 23 8 38
-5 30 -25z m1130 2 c-3 -7 -5 -2 -5 12 0 14 2 19 5 13 2 -7 2 -19 0 -25z
m-1273 -20 c-3 -5 -12 -4 -20 3 -19 16 -18 18 6 12 11 -3 17 -9 14 -15z m126
-28 c0 -21 -15 -27 -25 -10 -7 12 2 30 16 30 5 0 9 -9 9 -20z m-1820 -4 c0 -3
-4 -8 -10 -11 -5 -3 -10 -1 -10 4 0 6 5 11 10 11 6 0 10 -2 10 -4z m746 -114
c-12 -11 -14 4 -8 53 l7 50 3 -49 c2 -26 1 -51 -2 -54z"/>
<path d="M7066 9496 c21 -15 30 -14 19 3 -3 6 -14 11 -23 11 -13 0 -13 -2 4
-14z"/>
<path d="M7025 9430 c3 -5 8 -10 11 -10 2 0 4 5 4 10 0 6 -5 10 -11 10 -5 0
-7 -4 -4 -10z"/>
<path d="M12339 6638 c-1 -7 -1 -15 -1 -18 20 -223 39 -316 63 -313 81 12 201
40 276 64 51 16 100 29 109 29 27 0 9 24 -28 37 -19 6 -53 19 -74 28 -22 9
-39 15 -39 14 0 -1 -37 21 -82 49 -46 29 -85 52 -88 52 -2 0 -29 16 -59 35
-59 37 -75 42 -77 23z"/>
<path d="M3220 3370 c0 -5 7 -7 15 -4 8 4 15 8 15 10 0 2 -7 4 -15 4 -8 0 -15
-4 -15 -10z"/>
<path d="M3200 3199 c0 -5 5 -7 10 -4 6 3 10 8 10 11 0 2 -4 4 -10 4 -5 0 -10
-5 -10 -11z"/>
<path d="M4153 2320 c-1 -11 0 -20 2 -20 2 0 9 9 15 20 8 15 8 20 -3 20 -7 0
-13 -9 -14 -20z"/>
<path d="M4086 1984 c-6 -24 -2 -43 8 -33 11 10 17 59 8 59 -5 0 -13 -12 -16
-26z"/>
<path d="M4080 1914 c0 -8 5 -12 10 -9 6 3 10 10 10 16 0 5 -4 9 -10 9 -5 0
-10 -7 -10 -16z"/>
<path d="M4710 10003 c1 -26 17 -31 40 -13 l25 20 -32 0 c-18 0 -33 -3 -33 -7z"/>
<path d="M7030 10001 c25 -15 243 -18 248 -3 3 9 -28 12 -130 12 -81 0 -127
-4 -118 -9z"/>
<path d="M5228 8983 c6 -2 18 -2 25 0 6 3 1 5 -13 5 -14 0 -19 -2 -12 -5z"/>
<path d="M6400 8756 c-36 -12 -84 -32 -106 -44 -47 -24 -154 -128 -154 -148 0
-8 -5 -14 -10 -14 -6 0 -15 -10 -20 -22 -6 -13 -19 -36 -30 -53 -10 -16 -26
-44 -35 -62 -9 -18 -23 -37 -31 -44 -8 -6 -14 -20 -14 -30 0 -10 -4 -21 -10
-24 -5 -3 -10 -17 -10 -31 0 -14 -7 -27 -15 -30 -9 -4 -15 -19 -15 -35 0 -17
-6 -32 -15 -35 -8 -4 -15 -15 -15 -25 0 -10 -4 -19 -10 -19 -5 0 -10 -9 -10
-20 0 -11 -7 -23 -15 -26 -12 -5 -13 -10 -5 -19 8 -10 6 -15 -9 -20 -11 -3
-23 -15 -26 -26 -4 -10 -11 -17 -16 -14 -5 4 -9 -5 -9 -18 0 -14 -7 -27 -15
-31 -8 -3 -21 -18 -28 -33 -14 -33 -22 -44 -64 -88 -19 -21 -27 -36 -20 -39 9
-3 8 -5 0 -5 -16 -1 -17 -21 -2 -21 14 0 144 131 185 187 16 20 44 52 62 69
17 18 32 41 32 52 0 11 7 25 15 32 8 7 15 9 15 5 0 -4 9 4 20 18 11 14 20 29
20 34 0 5 13 24 30 43 16 19 29 40 30 45 0 6 14 26 31 44 17 19 62 78 101 133
39 54 74 98 79 98 5 0 9 5 9 10 0 11 30 46 108 129 23 24 42 49 42 53 0 5 4 7
9 4 4 -3 19 6 31 19 25 27 21 32 -11 15 -13 -7 -19 -7 -19 0 0 13 -3 13 -80
-14z"/>
<path d="M5100 8520 c0 -5 5 -10 10 -10 6 0 10 5 10 10 0 6 -4 10 -10 10 -5 0
-10 -4 -10 -10z"/>
<path d="M10065 8489 c-16 -6 -59 -20 -95 -31 -101 -32 -200 -104 -200 -144 0
-8 -5 -12 -10 -9 -6 3 -15 -6 -20 -21 -6 -15 -20 -34 -31 -42 -15 -10 -17 -17
-9 -22 8 -5 1 -16 -20 -34 -21 -17 -26 -26 -16 -26 12 0 16 -10 16 -35 0 -27
-4 -35 -18 -35 -19 0 -46 -55 -36 -72 4 -5 17 -7 30 -4 16 4 24 2 24 -6 0 -7
3 -24 6 -38 4 -15 2 -20 -3 -13 -5 7 -13 9 -19 5 -22 -14 -64 -85 -64 -108 0
-13 -4 -24 -8 -24 -4 0 -8 -9 -8 -20 0 -11 4 -20 8 -20 4 0 8 5 8 10 0 6 14
10 30 10 25 0 30 -4 30 -24 0 -14 -5 -28 -10 -31 -6 -4 -8 -15 -5 -25 4 -13
-1 -23 -13 -31 -12 -7 -17 -19 -14 -31 2 -10 -1 -18 -7 -18 -6 0 -11 5 -11 10
0 6 -8 10 -17 10 -15 0 -15 -1 2 -14 10 -7 16 -20 12 -29 -8 -22 40 -33 62
-13 9 8 32 17 52 21 35 6 36 6 32 -18 -3 -14 -14 -27 -25 -31 -18 -4 -20 -10
-14 -45 3 -23 3 -41 -2 -41 -15 0 -53 -41 -47 -51 4 -5 3 -14 -1 -20 -4 -8 -9
-7 -15 2 -6 10 -12 4 -23 -21 -8 -19 -10 -36 -5 -38 15 -6 10 -27 -13 -52 -13
-14 -22 -28 -21 -32 2 -5 -6 -8 -18 -8 -16 0 -19 -4 -14 -20 5 -14 2 -20 -9
-20 -9 0 -16 -4 -16 -8 0 -5 21 -7 46 -6 36 2 44 0 40 -12 -3 -8 9 -27 28 -46
l33 -32 -74 -63 c-41 -35 -107 -84 -146 -109 -40 -25 -83 -54 -97 -65 -14 -10
-68 -47 -121 -83 -53 -35 -122 -89 -154 -120 -32 -31 -62 -56 -67 -56 -4 0 -8
-6 -8 -14 0 -11 22 -15 88 -19 48 -3 105 -8 127 -12 22 -3 123 -8 225 -9 186
-4 476 20 560 46 65 20 224 161 313 278 23 30 59 75 79 99 21 24 38 48 38 53
0 5 11 24 25 42 14 18 25 38 25 44 0 7 5 12 10 12 21 0 9 19 -19 28 -16 6 -32
19 -35 30 -4 11 -25 27 -46 36 -22 9 -40 20 -40 26 0 5 -12 11 -27 11 -17 1
-21 3 -10 6 9 2 17 11 17 19 0 11 -4 12 -19 4 -29 -15 -32 -13 -25 15 7 27
-12 36 -22 10 -4 -11 -13 -13 -28 -9 -26 8 -39 26 -24 35 19 12 -2 29 -42 35
-22 4 -45 13 -51 20 -6 8 -18 14 -26 14 -20 0 -25 22 -14 53 7 19 7 36 0 54
-13 34 -3 93 15 93 15 0 29 27 21 41 -3 4 3 14 14 21 16 10 17 15 8 26 -9 11
-7 17 8 28 10 8 13 14 6 14 -7 0 -11 8 -10 18 3 35 -1 43 -20 37 -10 -3 -24 1
-31 10 -10 12 -9 15 6 16 18 0 18 1 -1 8 -17 7 -17 9 -3 17 9 5 18 22 20 37 3
19 24 46 62 82 l58 53 1 85 c0 47 5 83 9 80 12 -7 -3 151 -15 158 -5 4 -5 9 2
14 9 5 9 10 1 20 -8 9 -8 15 0 20 15 9 12 41 -6 59 -18 18 -110 21 -159 5z
m135 -346 c0 -27 -5 -55 -10 -63 -8 -12 -10 -11 -10 7 0 12 -5 33 -11 47 -9
19 -8 28 2 40 23 25 29 18 29 -31z m-130 -283 c0 -5 -5 -10 -11 -10 -5 0 -7 5
-4 10 3 6 8 10 11 10 2 0 4 -4 4 -10z m-16 -425 c-4 -8 -7 -15 -9 -15 -2 0 -5
7 -9 15 -3 9 0 15 9 15 9 0 12 -6 9 -15z m235 -152 c19 -5 36 -14 38 -20 3 -7
-4 -9 -15 -6 -11 2 -23 0 -26 -6 -4 -6 0 -11 9 -11 9 0 13 -5 9 -11 -4 -8 -9
-8 -17 0 -6 6 -19 11 -29 11 -10 0 -18 5 -18 10 0 6 7 10 15 10 22 0 18 17 -5
23 -11 3 -20 11 -20 17 0 9 4 9 13 2 6 -6 27 -14 46 -19z m-675 2 c-4 -8 -8
-15 -10 -15 -2 0 -4 7 -4 15 0 8 4 15 10 15 5 0 7 -7 4 -15z m-14 -35 c0 -5
-5 -10 -11 -10 -5 0 -7 5 -4 10 3 6 8 10 11 10 2 0 4 -4 4 -10z m773 -27 c4
-3 -5 -12 -20 -20 -30 -16 -41 -11 -22 11 15 16 32 20 42 9z m33 -48 c14 -13
14 -16 -1 -21 -19 -8 -40 10 -31 25 9 15 15 14 32 -4z m-58 -43 c2 -7 -3 -12
-12 -12 -9 0 -16 7 -16 16 0 17 22 14 28 -4z m-268 -301 c0 -50 -36 -90 -105
-116 -65 -24 -295 -31 -295 -9 0 12 -4 12 -20 4 -28 -15 -67 5 -49 26 6 8 22
14 35 14 12 0 26 5 29 10 3 6 19 10 35 10 16 0 32 5 35 10 4 6 10 8 15 5 5 -3
21 0 37 6 15 6 48 13 73 16 24 3 62 14 83 25 21 10 41 17 44 14 3 -3 15 1 27
9 38 27 56 19 56 -24z"/>
<path d="M12730 8070 c0 -5 5 -10 10 -10 6 0 10 5 10 10 0 6 -4 10 -10 10 -5
0 -10 -4 -10 -10z"/>
<path d="M6562 7970 c0 -14 2 -19 5 -12 2 6 2 18 0 25 -3 6 -5 1 -5 -13z"/>
<path d="M7105 7860 c3 -5 8 -10 11 -10 2 0 4 5 4 10 0 6 -5 10 -11 10 -5 0
-7 -4 -4 -10z"/>
<path d="M8285 7837 c-10 -8 -14 -17 -8 -20 5 -3 17 3 26 14 19 22 9 25 -18 6z"/>
<path d="M12966 7785 c-3 -8 -1 -15 3 -15 5 0 11 7 15 15 3 8 1 15 -3 15 -5 0
-11 -7 -15 -15z"/>
<path d="M13010 7790 c0 -5 5 -10 11 -10 5 0 7 5 4 10 -3 6 -8 10 -11 10 -2 0
-4 -4 -4 -10z"/>
<path d="M8401 7774 c0 -11 3 -14 6 -6 3 7 2 16 -1 19 -3 4 -6 -2 -5 -13z"/>
<path d="M7195 7770 c-3 -6 1 -7 9 -4 18 7 21 14 7 14 -6 0 -13 -4 -16 -10z"/>
<path d="M7120 7760 c0 -5 5 -10 10 -10 6 0 10 5 10 10 0 6 -4 10 -10 10 -5 0
-10 -4 -10 -10z"/>
<path d="M7230 7730 c0 -22 5 -40 10 -40 6 0 10 18 10 40 0 22 -4 40 -10 40
-5 0 -10 -18 -10 -40z"/>
<path d="M11226 7755 c-3 -9 0 -15 9 -15 16 0 20 16 6 24 -5 3 -11 -1 -15 -9z"/>
<path d="M12973 7763 c-23 -9 -14 -25 10 -18 31 10 45 25 22 24 -11 0 -26 -3
-32 -6z"/>
<path d="M7025 7730 c3 -5 8 -10 11 -10 2 0 4 5 4 10 0 6 -5 10 -11 10 -5 0
-7 -4 -4 -10z"/>
<path d="M7150 7724 c0 -8 5 -12 10 -9 6 4 8 11 5 16 -9 14 -15 11 -15 -7z"/>
<path d="M6930 7675 c0 -9 6 -12 15 -9 8 4 15 10 15 15 0 5 -7 9 -15 9 -8 0
-15 -7 -15 -15z"/>
<path d="M7040 7680 c0 -5 9 -10 20 -10 11 0 20 5 20 10 0 6 -9 10 -20 10 -11
0 -20 -4 -20 -10z"/>
<path d="M7060 7610 c0 -5 -1 -13 -2 -17 -2 -5 12 -9 30 -10 22 -1 32 3 32 14
0 10 -6 12 -21 8 -15 -5 -19 -4 -15 4 4 6 0 11 -8 11 -9 0 -16 -4 -16 -10z"/>
<path d="M10080 7601 c0 -6 5 -13 10 -16 6 -3 10 1 10 9 0 9 -4 16 -10 16 -5
0 -10 -4 -10 -9z"/>
<path d="M7140 7570 c0 -5 9 -10 20 -10 11 0 20 5 20 10 0 6 -9 10 -20 10 -11
0 -20 -4 -20 -10z"/>
<path d="M10100 7560 c0 -5 5 -10 11 -10 5 0 7 5 4 10 -3 6 -8 10 -11 10 -2 0
-4 -4 -4 -10z"/>
<path d="M7116 7537 c3 -10 9 -15 12 -12 3 3 0 11 -7 18 -10 9 -11 8 -5 -6z"/>
<path d="M12710 7514 c0 -14 3 -14 15 -4 8 7 15 14 15 16 0 2 -7 4 -15 4 -8 0
-15 -7 -15 -16z"/>
<path d="M10200 7475 c-13 -33 3 -75 29 -75 10 0 24 -7 31 -15 7 -9 19 -14 27
-11 8 3 11 1 8 -4 -3 -6 0 -10 7 -10 7 0 68 -23 135 -51 114 -47 160 -56 151
-28 -2 6 -30 26 -63 44 -149 83 -239 136 -250 145 -6 5 -23 14 -38 19 -25 10
-29 8 -37 -14z"/>
<path d="M12465 7450 c3 -5 8 -10 11 -10 2 0 4 5 4 10 0 6 -5 10 -11 10 -5 0
-7 -4 -4 -10z"/>
<path d="M12792 7445 l-23 -12 22 -6 c24 -7 52 9 43 24 -7 11 -13 10 -42 -6z"/>
<path d="M12710 7405 c0 -13 4 -14 20 -5 11 6 20 13 20 15 0 3 -9 5 -20 5 -11
0 -20 -7 -20 -15z"/>
<path d="M12460 7400 c0 -5 5 -10 10 -10 6 0 10 5 10 10 0 6 -4 10 -10 10 -5
0 -10 -4 -10 -10z"/>
<path d="M12830 7400 c0 -5 4 -10 9 -10 6 0 13 5 16 10 3 6 -1 10 -9 10 -9 0
-16 -4 -16 -10z"/>
<path d="M13240 7403 c0 -6 8 -17 18 -24 16 -13 16 -13 2 6 -8 11 -16 22 -17
24 -2 2 -3 0 -3 -6z"/>
<path d="M10236 7375 c-3 -9 0 -15 9 -15 9 0 12 6 9 15 -4 8 -7 15 -9 15 -2 0
-5 -7 -9 -15z"/>
<path d="M12391 7371 c-8 -5 -9 -11 -3 -15 5 -3 12 1 16 9 6 17 6 18 -13 6z"/>
<path d="M12855 7369 c-19 -7 -19 -8 -1 -8 11 -1 31 -11 44 -23 l24 -23 -4 24
c-4 27 -34 42 -63 30z"/>
<path d="M12430 7356 c0 -17 14 -29 23 -20 8 8 -3 34 -14 34 -5 0 -9 -6 -9
-14z"/>
<path d="M12476 7354 c-6 -17 38 -38 66 -31 9 3 19 0 22 -7 2 -6 8 -1 11 12 4
12 11 22 16 22 5 0 9 5 9 10 0 6 -7 10 -15 10 -8 0 -15 -4 -15 -10 0 -5 -6 -8
-12 -6 -45 14 -77 14 -82 0z"/>
<path d="M12528 7288 c5 -5 16 -8 23 -6 8 3 3 7 -10 11 -17 4 -21 3 -13 -5z"/>
<path d="M12640 7280 c0 -5 5 -10 10 -10 6 0 10 5 10 10 0 6 -4 10 -10 10 -5
0 -10 -4 -10 -10z"/>
<path d="M9500 7200 c0 -5 5 -10 10 -10 6 0 10 5 10 10 0 6 -4 10 -10 10 -5 0
-10 -4 -10 -10z"/>
<path d="M10956 7185 c-3 -9 0 -15 9 -15 8 0 15 7 15 15 0 8 -4 15 -9 15 -5 0
-11 -7 -15 -15z"/>
<path d="M13315 7181 c-3 -5 -1 -12 4 -15 5 -3 11 1 15 9 6 16 -9 21 -19 6z"/>
<path d="M12816 7086 c3 -9 11 -16 16 -16 13 0 5 23 -10 28 -7 2 -10 -2 -6
-12z"/>
<path d="M12850 7076 c0 -2 7 -9 15 -16 12 -10 15 -10 15 4 0 9 -7 16 -15 16
-8 0 -15 -2 -15 -4z"/>
<path d="M12940 6991 c0 -5 7 -11 14 -14 10 -4 13 -1 9 9 -6 15 -23 19 -23 5z"/>
<path d="M12800 6971 c0 -6 5 -13 10 -16 6 -3 10 1 10 9 0 9 -4 16 -10 16 -5
0 -10 -4 -10 -9z"/>
<path d="M10858 6963 c7 -3 16 -2 19 1 4 3 -2 6 -13 5 -11 0 -14 -3 -6 -6z"/>
<path d="M13197 6934 c-8 -8 1 -24 14 -24 5 0 9 7 9 15 0 15 -12 20 -23 9z"/>
<path d="M12947 6881 c24 -23 33 -26 33 -13 0 5 -12 14 -27 21 l-28 13 22 -21z"/>
<path d="M13088 6883 c17 -31 15 -53 -2 -30 -7 9 -18 17 -24 17 -6 0 -13 6
-16 13 -3 6 -3 0 0 -15 5 -22 2 -28 -11 -28 -14 0 -15 -3 -5 -15 9 -11 16 -12
26 -5 9 8 15 7 21 -2 9 -15 82 -43 90 -34 4 3 -1 6 -10 6 -17 0 -21 11 -17 39
1 7 -13 27 -31 45 -24 23 -29 25 -21 9z"/>
<path d="M10808 6883 c7 -3 16 -2 19 1 4 3 -2 6 -13 5 -11 0 -14 -3 -6 -6z"/>
<path d="M13267 6876 c-7 -16 1 -26 20 -26 7 0 13 9 13 20 0 23 -25 27 -33 6z"/>
<path d="M10615 6858 c-43 -16 -66 -56 -26 -45 14 3 18 1 14 -9 -6 -17 1 -18
26 -2 11 7 16 19 13 30 -2 10 1 18 7 18 6 0 11 -4 11 -10 0 -5 9 -10 20 -10
11 0 20 5 20 10 0 6 -9 10 -20 10 -11 0 -20 5 -20 10 0 12 -6 12 -45 -2z"/>
<path d="M10850 6820 c0 -5 5 -10 11 -10 5 0 7 5 4 10 -3 6 -8 10 -11 10 -2 0
-4 -4 -4 -10z"/>
<path d="M13368 6813 c7 -3 16 -2 19 1 4 3 -2 6 -13 5 -11 0 -14 -3 -6 -6z"/>
<path d="M10668 6778 c9 -9 15 -9 24 0 9 9 7 12 -12 12 -19 0 -21 -3 -12 -12z"/>
<path d="M13458 6783 c-10 -2 -18 -13 -18 -23 0 -18 2 -18 45 -2 25 9 45 20
45 24 0 8 -43 9 -72 1z"/>
<path d="M13580 6760 c0 -5 5 -10 10 -10 6 0 10 5 10 10 0 6 -4 10 -10 10 -5
0 -10 -4 -10 -10z"/>
<path d="M13605 6739 c-4 -11 -4 -23 -1 -26 3 -4 6 1 6 10 0 10 5 17 10 17 6
0 10 5 10 10 0 18 -19 10 -25 -11z"/>
<path d="M10815 6730 c-10 -11 -27 -20 -37 -20 -11 0 -23 -11 -28 -25 -5 -14
-14 -25 -20 -25 -5 0 -10 -4 -10 -10 0 -5 18 -10 40 -10 22 0 40 5 40 10 0 6
5 10 10 10 6 0 10 -14 10 -31 0 -20 4 -29 13 -26 6 2 11 14 9 25 -2 15 2 22
12 22 9 0 16 -6 16 -12 0 -9 4 -8 10 2 8 12 10 11 10 -7 0 -22 36 -50 48 -38
3 3 1 15 -6 25 -7 11 -12 27 -12 35 0 10 -9 15 -26 15 -25 0 -26 3 -21 34 4
25 1 36 -10 40 -23 9 -29 7 -48 -14z"/>
<path d="M13267 6739 c6 -6 9 -17 7 -24 -7 -16 40 -45 68 -42 17 1 23 -3 22
-15 -1 -10 3 -18 9 -18 21 0 86 -35 87 -47 0 -6 12 -13 28 -15 15 -2 26 -8 25
-14 -1 -6 4 -11 11 -11 21 0 76 -24 76 -33 0 -5 9 -6 20 -3 26 7 26 33 1 40
-11 3 -18 10 -15 16 2 7 -8 13 -27 14 -18 1 -39 9 -49 18 -9 8 -26 15 -38 15
-12 0 -22 5 -22 10 0 6 5 10 10 10 6 0 10 5 10 10 0 6 -9 10 -21 10 -15 0 -19
-5 -15 -15 3 -8 1 -15 -4 -15 -6 0 -10 12 -10 28 0 19 -3 23 -9 13 -7 -12 -13
-12 -40 0 -17 8 -31 20 -31 28 0 9 -7 11 -25 7 -18 -5 -25 -2 -25 8 0 9 -9 20
-19 26 -26 13 -38 13 -24 -1z"/>
<path d="M10660 6713 c0 -14 1 -24 3 -22 1 2 11 14 21 27 19 22 19 22 -2 22
-17 0 -22 -6 -22 -27z"/>
<path d="M13548 6733 c7 -3 16 -2 19 1 4 3 -2 6 -13 5 -11 0 -14 -3 -6 -6z"/>
<path d="M13498 6723 c7 -3 16 -2 19 1 4 3 -2 6 -13 5 -11 0 -14 -3 -6 -6z"/>
<path d="M13390 6700 c0 -5 4 -10 9 -10 6 0 13 5 16 10 3 6 -1 10 -9 10 -9 0
-16 -4 -16 -10z"/>
<path d="M10590 6684 c0 -17 22 -14 28 4 2 7 -3 12 -12 12 -9 0 -16 -7 -16
-16z"/>
<path d="M10455 6677 c-4 -10 -5 -21 -1 -24 10 -10 18 4 13 24 -4 17 -4 17
-12 0z"/>
<path d="M10663 6636 c-31 -15 -29 -42 2 -49 27 -5 45 15 45 47 0 18 -15 19
-47 2z"/>
<path d="M10420 6610 c0 -5 7 -10 15 -10 8 0 15 5 15 10 0 6 -7 10 -15 10 -8
0 -15 -4 -15 -10z"/>
<path d="M10768 6603 c6 -2 18 -2 25 0 6 3 1 5 -13 5 -14 0 -19 -2 -12 -5z"/>
<path d="M10333 6583 c-16 -6 -17 -33 -3 -33 11 0 26 28 19 34 -2 2 -10 1 -16
-1z"/>
<path d="M10386 6575 c-3 -9 0 -15 9 -15 9 0 12 6 9 15 -4 8 -7 15 -9 15 -2 0
-5 -7 -9 -15z"/>
<path d="M8706 6572 c-3 -6 -1 -14 5 -17 15 -10 25 3 12 16 -7 7 -13 7 -17 1z"/>
<path d="M10613 6568 c1 -8 -10 -14 -25 -16 -34 -4 -37 -22 -5 -22 13 0 28 -5
35 -12 13 -13 19 -10 22 12 5 32 -1 50 -15 50 -8 0 -14 -6 -12 -12z"/>
<path d="M10860 6570 c0 -5 5 -10 10 -10 6 0 10 5 10 10 0 6 -4 10 -10 10 -5
0 -10 -4 -10 -10z"/>
<path d="M13425 6570 c-3 -5 -1 -10 4 -10 6 0 11 5 11 10 0 6 -2 10 -4 10 -3
0 -8 -4 -11 -10z"/>
<path d="M13470 6560 c0 -5 5 -10 11 -10 5 0 7 5 4 10 -3 6 -8 10 -11 10 -2 0
-4 -4 -4 -10z"/>
<path d="M10345 6530 c3 -5 8 -10 11 -10 2 0 4 5 4 10 0 6 -5 10 -11 10 -5 0
-7 -4 -4 -10z"/>
<path d="M13517 6533 c-12 -12 -7 -22 8 -17 8 4 15 10 15 15 0 11 -14 12 -23
2z"/>
<path d="M10472 6521 c4 -13 18 -16 19 -4 0 4 -5 9 -11 12 -7 2 -11 -2 -8 -8z"/>
<path d="M10830 6520 c0 -5 5 -10 10 -10 6 0 10 5 10 10 0 6 -4 10 -10 10 -5
0 -10 -4 -10 -10z"/>
<path d="M13410 6510 c37 -29 55 -26 24 4 -8 9 -23 16 -32 16 -13 0 -11 -5 8
-20z"/>
<path d="M13850 6522 c0 -12 19 -26 26 -19 2 2 -2 10 -11 17 -9 8 -15 8 -15 2z"/>
<path d="M13360 6490 c0 -6 7 -10 15 -10 8 0 15 2 15 4 0 2 -7 6 -15 10 -8 3
-15 1 -15 -4z"/>
<path d="M10431 6474 c0 -11 3 -14 6 -6 3 7 2 16 -1 19 -3 4 -6 -2 -5 -13z"/>
<path d="M13478 6475 c13 -9 26 -14 29 -11 8 8 3 12 -27 21 l-25 7 23 -17z"/>
<path d="M13330 6419 c-10 -6 0 -9 34 -9 54 0 57 4 11 13 -17 3 -37 2 -45 -4z"/>
<path d="M10510 6394 c0 -8 5 -12 10 -9 6 3 10 10 10 16 0 5 -4 9 -10 9 -5 0
-10 -7 -10 -16z"/>
<path d="M10560 6385 c0 -16 16 -20 24 -6 3 5 -1 11 -9 15 -9 3 -15 0 -15 -9z"/>
<path d="M13402 6378 c13 -19 58 -36 58 -22 0 10 -44 43 -59 44 -11 0 -11 -4
1 -22z"/>
<path d="M10465 6340 c-3 -5 -1 -10 4 -10 6 0 11 5 11 10 0 6 -2 10 -4 10 -3
0 -8 -4 -11 -10z"/>
<path d="M13418 6322 c-23 -4 -23 -18 -2 -26 20 -8 27 -3 22 16 -1 7 -11 12
-20 10z"/>
<path d="M13580 6326 c0 -2 7 -6 15 -10 8 -3 15 -1 15 4 0 6 -7 10 -15 10 -8
0 -15 -2 -15 -4z"/>
<path d="M10392 6296 c13 -14 28 -12 28 5 0 5 -9 9 -20 9 -17 0 -19 -2 -8 -14z"/>
<path d="M13688 6253 c6 -2 18 -2 25 0 6 3 1 5 -13 5 -14 0 -19 -2 -12 -5z"/>
<path d="M13574 6235 c16 -9 32 -13 35 -10 8 9 -21 25 -44 25 -16 0 -14 -3 9
-15z"/>
<path d="M10200 6175 c7 -8 17 -15 22 -15 5 0 3 7 -6 15 -8 8 -18 15 -22 15
-3 0 -1 -7 6 -15z"/>
<path d="M5700 5025 c0 -9 5 -15 11 -13 6 2 11 8 11 13 0 5 -5 11 -11 13 -6 2
-11 -4 -11 -13z"/>
<path d="M5480 4844 c0 -3 6 -11 13 -18 10 -11 15 -11 25 0 18 19 15 24 -13
24 -14 0 -25 -3 -25 -6z"/>
<path d="M5510 4620 c8 -5 20 -10 25 -10 6 0 3 5 -5 10 -8 5 -19 10 -25 10 -5
0 -3 -5 5 -10z"/>
<path d="M4769 4573 c-13 -16 -12 -17 4 -4 16 13 21 21 13 21 -2 0 -10 -8 -17
-17z"/>
<path d="M4705 4500 c-10 -11 -13 -20 -8 -20 13 0 38 29 31 35 -3 3 -13 -4
-23 -15z"/>
<path d="M4649 4423 c-13 -16 -12 -17 4 -4 16 13 21 21 13 21 -2 0 -10 -8 -17
-17z"/>
<path d="M3680 4420 c0 -5 7 -10 16 -10 8 0 12 5 9 10 -3 6 -10 10 -16 10 -5
0 -9 -4 -9 -10z"/>
<path d="M3638 4413 c7 -3 16 -2 19 1 4 3 -2 6 -13 5 -11 0 -14 -3 -6 -6z"/>
<path d="M5400 4410 c8 -5 20 -10 25 -10 6 0 3 5 -5 10 -8 5 -19 10 -25 10 -5
0 -3 -5 5 -10z"/>
<path d="M4578 4329 c-19 -11 -24 -29 -8 -29 5 0 14 9 20 20 12 23 12 23 -12
9z"/>
<path d="M5500 4162 c0 -5 7 -15 15 -22 8 -7 15 -9 15 -6 0 4 -7 14 -15 22 -8
9 -15 11 -15 6z"/>
<path d="M5536 4062 c-7 -11 31 -48 41 -38 4 3 -2 16 -14 27 -11 12 -23 17
-27 11z"/>
<path d="M4380 3955 c0 -8 2 -15 4 -15 2 0 6 7 10 15 3 8 1 15 -4 15 -6 0 -10
-7 -10 -15z"/>
<path d="M3556 3315 c-13 -20 -14 -25 -2 -25 7 0 16 -7 20 -15 3 -8 10 -15 16
-15 14 0 12 42 -4 63 -13 16 -15 16 -30 -8z"/>
<path d="M4130 3300 c0 -5 5 -10 11 -10 5 0 7 5 4 10 -3 6 -8 10 -11 10 -2 0
-4 -4 -4 -10z"/>
<path d="M3516 3185 c-11 -29 14 -60 29 -35 3 6 -1 10 -10 10 -12 0 -15 6 -10
20 7 23 0 27 -9 5z"/>
<path d="M3565 3170 c-3 -5 3 -10 14 -10 12 0 21 5 21 10 0 6 -6 10 -14 10 -8
0 -18 -4 -21 -10z"/>
<path d="M3415 3040 c3 -5 10 -10 16 -10 5 0 9 5 9 10 0 6 -7 10 -16 10 -8 0
-12 -4 -9 -10z"/>
<path d="M3360 2980 c0 -5 7 -10 16 -10 8 0 12 5 9 10 -3 6 -10 10 -16 10 -5
0 -9 -4 -9 -10z"/>
<path d="M4093 945 c-19 -21 -16 -24 12 -12 14 7 25 15 25 20 0 12 -24 7 -37
-8z"/>
<path d="M4111 794 c0 -11 3 -14 6 -6 3 7 2 16 -1 19 -3 4 -6 -2 -5 -13z"/>
<path d="M4102 210 c-14 -13 -22 -33 -22 -53 0 -18 -6 -39 -12 -45 -10 -10
-10 -15 1 -21 10 -7 11 -10 0 -16 -9 -6 -7 -10 9 -16 15 -6 22 -17 22 -34 0
-15 6 -25 14 -25 14 0 12 21 -9 73 -5 12 -2 17 8 17 19 0 31 33 22 60 -3 11
-14 20 -22 20 -14 0 -13 4 5 23 37 39 23 53 -16 17z"/>
</g>
</svg>
